<svg width="332" height="108" viewBox="0 0 332 108" fill="none" xmlns="http://www.w3.org/2000/svg">
<g clip-path="url(#clip0_417_13046)">
<path fill-rule="evenodd" clip-rule="evenodd" d="M64.6699 5.8382C58.1317 -0.699975 47.5313 -0.699972 40.9931 5.8382L5.47785 41.3534C-1.06033 47.8916 -1.06032 58.4921 5.47785 65.0303L40.9931 100.545C47.5313 107.084 58.1317 107.084 64.6699 100.545L100.185 65.0303C106.723 58.4921 106.723 47.8916 100.185 41.3534L64.6699 5.8382ZM37.4658 56.1251C37.4583 57.3707 37.481 58.6234 37.6172 59.869C37.6404 60.0715 37.6696 60.2741 37.6986 60.4757L37.6987 60.4759L37.6987 60.476C37.7264 60.6684 37.754 60.8599 37.7761 61.0498C37.6671 61.1189 37.5582 61.1143 37.4492 61.1096L37.4153 61.1083C37.3993 61.1077 37.3834 61.1073 37.3674 61.1073H32.6977C32.6776 61.1073 32.6574 61.1065 32.6372 61.1057C32.5968 61.1041 32.5565 61.1025 32.5161 61.1073C32.3193 61.1289 32.2588 61.0354 32.2512 60.8554C32.2376 60.4852 32.2159 60.1176 32.1942 59.7496L32.1942 59.7491C32.1796 59.5016 32.165 59.2539 32.1528 59.005C32.1479 58.907 32.1494 58.809 32.151 58.6992V58.6992L32.151 58.6988V58.6988C32.1519 58.6394 32.1528 58.5765 32.1528 58.5082C31.9629 58.5703 31.894 58.6811 31.8293 58.785C31.8115 58.8137 31.794 58.8418 31.7744 58.8682C31.01 59.905 30.0715 60.7258 28.7924 61.1577C27.9978 61.4313 27.1728 61.5321 26.3403 61.5105C25.1293 61.4817 23.9411 61.2873 22.8361 60.769C21.2619 60.0346 20.2856 58.8754 19.998 57.2123C19.9753 57.0827 19.9526 56.9531 19.8315 56.8667V55.5708C19.9654 55.504 19.9811 55.3811 19.9963 55.2623C19.9991 55.24 20.002 55.2179 20.0055 55.1964C20.278 53.6772 21.1711 52.5685 22.5561 51.8125C23.6459 51.2149 24.8417 50.9053 26.0754 50.7326C27.8615 50.4806 29.6552 50.459 31.449 50.7109C31.8122 50.7613 31.8425 50.7397 31.8047 50.387C31.6987 49.4078 31.2295 48.6734 30.2683 48.2558C29.8142 48.0543 29.3298 47.9319 28.8303 47.8959C26.8625 47.7591 24.9326 47.9463 23.0934 48.6734C22.9413 48.736 22.7935 48.8029 22.6467 48.8694L22.6463 48.8695C22.523 48.9253 22.4003 48.9809 22.2761 49.0334C22.1687 48.9767 22.1788 48.8931 22.188 48.818C22.1904 48.7977 22.1928 48.7781 22.1928 48.7598L22.1905 48.6778C22.161 47.64 22.1317 46.6086 22.1095 45.5704C22.102 45.2059 22.1094 45.2032 22.4499 45.0765L22.4577 45.0736C23.9487 44.5264 25.5002 44.224 27.0896 44.0944C28.2475 44.0008 29.4055 43.9648 30.571 44.0872C31.9182 44.2312 33.2124 44.5336 34.3931 45.2032C36.0808 46.1607 37.0042 47.5935 37.3447 49.4006C37.4431 49.8974 37.4658 50.4014 37.4658 50.9053V56.1251ZM25.644 56.3267C25.871 57.0107 26.416 57.3851 27.1123 57.5435C29.958 58.2059 31.729 55.9595 31.8198 53.922C31.8274 53.7636 31.7744 53.6916 31.5928 53.6844C31.2371 53.67 30.8834 53.6538 30.5297 53.6376C30.1757 53.6214 29.8218 53.6052 29.466 53.5908C29.0119 53.5692 28.5578 53.6196 28.1113 53.6772C27.5058 53.7492 26.923 53.9004 26.416 54.2388C25.7045 54.7068 25.3867 55.5564 25.644 56.3267ZM53.8351 49.1079L53.8351 49.1078L53.835 49.1078C53.6232 49.007 53.4264 48.9135 53.2145 48.8271C51.8522 48.2511 50.4294 48.0639 48.9687 48.3879C47.1144 48.8055 45.8581 50.1878 45.6007 51.9806C45.4721 52.8661 45.5023 53.7373 45.8883 54.5581C46.6149 56.106 47.9318 56.9412 49.6498 57.2076C51.0878 57.4235 52.4804 57.2004 53.8276 56.7036C53.8903 56.6804 53.9531 56.6556 54.0143 56.6315C54.0861 56.6032 54.1558 56.5757 54.2211 56.5524C54.3139 56.5759 54.3157 56.6235 54.3174 56.6676C54.3178 56.6774 54.3181 56.6871 54.3195 56.6964C54.332 57.1101 54.3437 57.5231 54.3554 57.9358C54.379 58.7727 54.4026 59.6084 54.4331 60.4474C54.4406 60.6922 54.3574 60.8002 54.1076 60.8722C53.1616 61.1386 52.2004 61.3114 51.2241 61.4194C49.3698 61.621 47.5382 61.513 45.7521 61.0018C43.7238 60.4186 42.0209 59.3819 40.7948 57.7115C39.9471 56.5524 39.5006 55.2564 39.3341 53.8597C39.1752 52.4629 39.3038 51.1022 39.7731 49.7774C40.6207 47.4159 42.3388 45.8176 44.7379 44.8744C46.5695 44.1545 48.4919 43.9313 50.4672 44.0609C51.6554 44.1401 52.8058 44.3416 53.9033 44.7808C54.3206 44.948 54.32 44.9534 54.2784 45.3383L54.2741 45.3784C54.1607 46.4214 54.0548 47.4644 53.949 48.5075L53.9488 48.5089L53.9487 48.5103C53.9472 48.5289 53.9459 48.5477 53.9447 48.5666C53.9438 48.5804 53.943 48.5943 53.9422 48.6083C53.9328 48.7672 53.9228 48.9351 53.8351 49.1079ZM62.2671 47.2586C62.2351 47.3261 62.1982 47.404 62.0468 47.4165V44.8246C62.0468 44.4286 62.0468 44.4214 61.6306 44.4214H56.9609C56.537 44.4214 56.5295 44.4214 56.5295 44.8174V60.7432C56.5295 61.1104 56.537 61.1176 56.9306 61.1176H62.1906C62.584 61.1176 62.5842 61.1104 62.5917 60.7436L62.5918 60.7432V60.4408V53.925C62.5918 53.2915 62.6447 52.6651 62.7658 52.0387C62.9096 51.2683 63.1594 50.534 63.6589 49.8932C64.4157 48.9284 65.6418 48.6836 66.656 48.8924C67.4734 49.058 67.935 49.6196 68.2075 50.3324C68.4421 50.9443 68.4951 51.5923 68.4951 52.2403V60.5704C68.4951 60.604 68.4959 60.6376 68.4968 60.6712C68.4985 60.7384 68.5002 60.8056 68.4951 60.8728C68.48 61.0672 68.5859 61.1248 68.7676 61.1104C68.818 61.1056 68.8685 61.1072 68.9189 61.1087C68.9442 61.1096 68.9694 61.1104 68.9946 61.1104H74.073H74.3455C74.4968 61.1175 74.565 61.0456 74.5574 60.9016C74.5523 60.8344 74.554 60.7672 74.5557 60.7C74.5565 60.6664 74.5574 60.6328 74.5574 60.5992C74.5574 59.8933 74.5582 59.1883 74.5591 58.4835C74.5608 57.0748 74.5624 55.6671 74.5574 54.2562C74.5574 53.637 74.5725 53.0179 74.6633 52.4059C74.7693 51.6715 74.951 50.9659 75.3294 50.3108C75.6926 49.6916 76.1922 49.202 76.9263 48.986C78.5838 48.5036 79.8628 49.0436 80.2867 50.7068C80.4002 51.1603 80.4532 51.6139 80.4532 52.0747V60.5776V60.9232C80.4532 61.0384 80.4986 61.1104 80.6348 61.1104H80.9073H86.0311C86.2972 61.1104 86.4182 61.1176 86.4727 61.061C86.5267 61.0048 86.5155 60.886 86.5155 60.6352C86.5155 59.6797 86.5146 58.7251 86.5138 57.7708C86.5121 55.8628 86.5104 53.956 86.5155 52.0459C86.5155 51.2683 86.4928 50.498 86.4473 49.7204C86.4095 48.986 86.2884 48.2589 86.0765 47.5533C85.524 45.6813 84.2449 44.551 82.2393 44.1838C81.1949 43.9966 80.1429 43.9462 79.0833 44.0974C77.5318 44.3206 76.1695 44.911 75.0569 45.9981C74.7776 46.2692 74.5413 46.573 74.3058 46.8756C74.2286 46.9748 74.1515 47.0739 74.073 47.1717C73.972 47.0982 73.927 47.0025 73.883 46.909C73.8709 46.8835 73.859 46.8581 73.846 46.8333C73.2102 45.6238 72.2188 44.8102 70.8867 44.371C69.5168 43.9174 68.1243 43.9102 66.7241 44.1838C64.779 44.5654 63.2426 45.523 62.2815 47.2293C62.2765 47.2387 62.2719 47.2485 62.2671 47.2586Z" fill="#F0F1FA"/>
<path d="M126.644 35.5454L130.93 23.826H133.491L137.76 35.5454H135.366L132.202 26.4043L129.021 35.5454H126.644ZM128.536 32.8834L129.138 31.1255H135.098L135.684 32.8834H128.536ZM142.683 35.7463C141.913 35.7463 141.243 35.6235 140.674 35.378C140.116 35.1324 139.669 34.7976 139.334 34.3735C139.011 33.9382 138.821 33.4415 138.765 32.8834H141.025C141.081 33.0955 141.176 33.2908 141.31 33.4694C141.444 33.6368 141.622 33.7708 141.846 33.8712C142.08 33.9717 142.348 34.0219 142.649 34.0219C142.951 34.0219 143.196 33.9828 143.386 33.9047C143.576 33.8154 143.715 33.7038 143.804 33.5698C143.905 33.4248 143.955 33.2741 143.955 33.1178C143.955 32.8834 143.888 32.7048 143.754 32.5821C143.62 32.4481 143.419 32.3421 143.152 32.264C142.895 32.1858 142.588 32.1133 142.231 32.0463C141.84 31.957 141.449 31.8566 141.059 31.745C140.679 31.6222 140.333 31.4715 140.021 31.2929C139.719 31.1143 139.479 30.8911 139.301 30.6232C139.122 30.3442 139.033 29.9982 139.033 29.5852C139.033 29.0941 139.167 28.6477 139.435 28.2459C139.703 27.8441 140.093 27.5316 140.607 27.3083C141.12 27.0739 141.734 26.9567 142.448 26.9567C143.464 26.9567 144.268 27.1855 144.859 27.6432C145.462 28.1008 145.813 28.7258 145.914 29.5183H143.788C143.732 29.2616 143.587 29.0607 143.352 28.9156C143.118 28.7593 142.817 28.6812 142.448 28.6812C142.047 28.6812 141.74 28.7537 141.528 28.8988C141.327 29.0439 141.226 29.2281 141.226 29.4513C141.226 29.6076 141.293 29.7471 141.427 29.8699C141.561 29.9926 141.756 30.0987 142.013 30.188C142.281 30.2661 142.593 30.3498 142.951 30.4391C143.587 30.573 144.15 30.7237 144.642 30.8911C145.133 31.0585 145.518 31.3041 145.797 31.6278C146.076 31.9403 146.215 32.3923 146.215 32.9839C146.226 33.5196 146.087 33.9996 145.797 34.4237C145.507 34.8367 145.094 35.1603 144.558 35.3947C144.033 35.6291 143.408 35.7463 142.683 35.7463ZM151.577 35.7463C150.807 35.7463 150.137 35.6235 149.568 35.378C149.01 35.1324 148.563 34.7976 148.229 34.3735C147.905 33.9382 147.715 33.4415 147.659 32.8834H149.919C149.975 33.0955 150.07 33.2908 150.204 33.4694C150.338 33.6368 150.517 33.7708 150.74 33.8712C150.974 33.9717 151.242 34.0219 151.543 34.0219C151.845 34.0219 152.09 33.9828 152.28 33.9047C152.47 33.8154 152.609 33.7038 152.699 33.5698C152.799 33.4248 152.849 33.2741 152.849 33.1178C152.849 32.8834 152.782 32.7048 152.648 32.5821C152.514 32.4481 152.314 32.3421 152.046 32.264C151.789 32.1858 151.482 32.1133 151.125 32.0463C150.734 31.957 150.344 31.8566 149.953 31.745C149.573 31.6222 149.227 31.4715 148.915 31.2929C148.614 31.1143 148.374 30.8911 148.195 30.6232C148.016 30.3442 147.927 29.9982 147.927 29.5852C147.927 29.0941 148.061 28.6477 148.329 28.2459C148.597 27.8441 148.987 27.5316 149.501 27.3083C150.014 27.0739 150.628 26.9567 151.343 26.9567C152.358 26.9567 153.162 27.1855 153.753 27.6432C154.356 28.1008 154.708 28.7258 154.808 29.5183H152.682C152.626 29.2616 152.481 29.0607 152.247 28.9156C152.012 28.7593 151.711 28.6812 151.343 28.6812C150.941 28.6812 150.634 28.7537 150.422 28.8988C150.221 29.0439 150.12 29.2281 150.12 29.4513C150.12 29.6076 150.187 29.7471 150.321 29.8699C150.455 29.9926 150.651 30.0987 150.907 30.188C151.175 30.2661 151.488 30.3498 151.845 30.4391C152.481 30.573 153.045 30.7237 153.536 30.8911C154.027 31.0585 154.412 31.3041 154.691 31.6278C154.97 31.9403 155.11 32.3923 155.11 32.9839C155.121 33.5196 154.981 33.9996 154.691 34.4237C154.401 34.8367 153.988 35.1603 153.452 35.3947C152.927 35.6291 152.302 35.7463 151.577 35.7463ZM161.007 35.7463C160.203 35.7463 159.478 35.5622 158.83 35.1938C158.194 34.8143 157.686 34.2953 157.307 33.6368C156.939 32.9671 156.754 32.2082 156.754 31.3599C156.754 30.4893 156.939 29.7248 157.307 29.0662C157.686 28.3966 158.2 27.8776 158.847 27.5092C159.495 27.1409 160.22 26.9567 161.024 26.9567C161.838 26.9567 162.564 27.1409 163.2 27.5092C163.847 27.8776 164.355 28.391 164.724 29.0495C165.103 29.708 165.293 30.4782 165.293 31.3599C165.293 32.2193 165.103 32.9783 164.724 33.6368C164.355 34.2953 163.847 34.8143 163.2 35.1938C162.553 35.5622 161.822 35.7463 161.007 35.7463ZM161.007 33.7875C161.375 33.7875 161.704 33.6982 161.995 33.5196C162.296 33.341 162.536 33.0676 162.715 32.6993C162.893 32.3309 162.982 31.8789 162.982 31.3432C162.982 30.8074 162.893 30.361 162.715 30.0038C162.547 29.6355 162.313 29.362 162.011 29.1834C161.721 28.9937 161.392 28.8988 161.024 28.8988C160.666 28.8988 160.337 28.9937 160.036 29.1834C159.734 29.362 159.495 29.6355 159.316 30.0038C159.137 30.361 159.048 30.8074 159.048 31.3432C159.048 31.8789 159.137 32.3309 159.316 32.6993C159.495 33.0676 159.729 33.341 160.019 33.5196C160.32 33.6982 160.65 33.7875 161.007 33.7875ZM171.326 35.7463C170.478 35.7463 169.724 35.5622 169.066 35.1938C168.407 34.8143 167.894 34.2953 167.525 33.6368C167.157 32.9783 166.973 32.2249 166.973 31.3766C166.973 30.5061 167.157 29.7415 167.525 29.083C167.894 28.4133 168.407 27.8943 169.066 27.526C169.724 27.1465 170.478 26.9567 171.326 26.9567C172.409 26.9567 173.313 27.2358 174.038 27.7938C174.775 28.3519 175.244 29.1276 175.444 30.121H173.05C172.95 29.7303 172.743 29.429 172.431 29.2169C172.118 28.9937 171.744 28.8821 171.309 28.8821C170.918 28.8821 170.567 28.9825 170.254 29.1834C169.953 29.3732 169.713 29.6522 169.534 30.0205C169.356 30.3889 169.267 30.8297 169.267 31.3432C169.267 31.7338 169.317 32.0798 169.417 32.3812C169.529 32.6825 169.674 32.9448 169.853 33.168C170.031 33.3801 170.243 33.5419 170.489 33.6536C170.745 33.7652 171.019 33.821 171.309 33.821C171.599 33.821 171.862 33.7763 172.096 33.687C172.33 33.5866 172.531 33.4415 172.699 33.2518C172.877 33.062 172.994 32.8332 173.05 32.5653H175.444C175.244 33.5364 174.775 34.3121 174.038 34.8925C173.301 35.4617 172.397 35.7463 171.326 35.7463ZM177.444 35.5454V27.1576H179.704V35.5454H177.444ZM178.583 25.969C178.17 25.969 177.835 25.8518 177.578 25.6174C177.321 25.3718 177.193 25.0649 177.193 24.6966C177.193 24.3282 177.321 24.0269 177.578 23.7925C177.835 23.5469 178.17 23.4242 178.583 23.4242C178.996 23.4242 179.33 23.5469 179.587 23.7925C179.855 24.0269 179.989 24.3282 179.989 24.6966C179.989 25.0649 179.855 25.3718 179.587 25.6174C179.33 25.8518 178.996 25.969 178.583 25.969ZM184.818 35.7463C184.115 35.7463 183.534 35.6347 183.077 35.4115C182.619 35.1771 182.279 34.8701 182.056 34.4907C181.832 34.1 181.721 33.6759 181.721 33.2183C181.721 32.7048 181.849 32.2528 182.106 31.8622C182.374 31.4715 182.775 31.1646 183.311 30.9413C183.847 30.7181 184.517 30.6065 185.32 30.6065H187.413C187.413 30.1935 187.357 29.8531 187.246 29.5852C187.134 29.3174 186.961 29.1165 186.727 28.9825C186.492 28.8486 186.18 28.7816 185.789 28.7816C185.365 28.7816 185.002 28.8765 184.701 29.0662C184.399 29.256 184.215 29.5406 184.148 29.9201H181.955C182.011 29.3062 182.206 28.7816 182.541 28.3463C182.887 27.8999 183.339 27.5595 183.897 27.3251C184.466 27.0795 185.103 26.9567 185.806 26.9567C186.598 26.9567 187.285 27.0907 187.865 27.3586C188.445 27.6153 188.892 27.9947 189.204 28.497C189.517 28.9993 189.673 29.6187 189.673 30.3554V35.5454H187.765L187.513 34.2563C187.391 34.4795 187.246 34.6804 187.078 34.859C186.911 35.0376 186.715 35.1938 186.492 35.3278C186.269 35.4617 186.018 35.5622 185.739 35.6291C185.46 35.7072 185.153 35.7463 184.818 35.7463ZM185.354 34.0051C185.644 34.0051 185.901 33.9549 186.124 33.8545C186.358 33.7429 186.559 33.5978 186.727 33.4192C186.894 33.2294 187.022 33.0174 187.112 32.783C187.212 32.5374 187.279 32.2807 187.313 32.0128V31.9961H185.588C185.242 31.9961 184.958 32.0407 184.734 32.13C184.522 32.2082 184.366 32.3254 184.266 32.4816C184.165 32.6379 184.115 32.8165 184.115 33.0174C184.115 33.2294 184.165 33.408 184.266 33.5531C184.366 33.6982 184.511 33.8098 184.701 33.8879C184.891 33.9661 185.108 34.0051 185.354 34.0051ZM195.451 35.5454C194.859 35.5454 194.34 35.4561 193.894 35.2775C193.459 35.0878 193.118 34.7809 192.873 34.3567C192.627 33.9214 192.504 33.3299 192.504 32.5821V29.0328H191.064V27.1576H192.504L192.755 24.864H194.764V27.1576H196.991V29.0328H194.764V32.6156C194.764 32.995 194.848 33.2573 195.016 33.4024C195.183 33.5475 195.468 33.6201 195.869 33.6201H196.958V35.5454H195.451ZM198.928 35.5454V27.1576H201.188V35.5454H198.928ZM200.066 25.969C199.653 25.969 199.318 25.8518 199.062 25.6174C198.805 25.3718 198.676 25.0649 198.676 24.6966C198.676 24.3282 198.805 24.0269 199.062 23.7925C199.318 23.5469 199.653 23.4242 200.066 23.4242C200.479 23.4242 200.814 23.5469 201.071 23.7925C201.338 24.0269 201.472 24.3282 201.472 24.6966C201.472 25.0649 201.338 25.3718 201.071 25.6174C200.814 25.8518 200.479 25.969 200.066 25.969ZM207.44 35.7463C206.636 35.7463 205.911 35.5622 205.263 35.1938C204.627 34.8143 204.119 34.2953 203.74 33.6368C203.372 32.9671 203.187 32.2082 203.187 31.3599C203.187 30.4893 203.372 29.7248 203.74 29.0662C204.119 28.3966 204.633 27.8776 205.28 27.5092C205.928 27.1409 206.653 26.9567 207.457 26.9567C208.271 26.9567 208.997 27.1409 209.633 27.5092C210.28 27.8776 210.788 28.391 211.157 29.0495C211.536 29.708 211.726 30.4782 211.726 31.3599C211.726 32.2193 211.536 32.9783 211.157 33.6368C210.788 34.2953 210.28 34.8143 209.633 35.1938C208.986 35.5622 208.255 35.7463 207.44 35.7463ZM207.44 33.7875C207.808 33.7875 208.137 33.6982 208.428 33.5196C208.729 33.341 208.969 33.0676 209.148 32.6993C209.326 32.3309 209.415 31.8789 209.415 31.3432C209.415 30.8074 209.326 30.361 209.148 30.0038C208.98 29.6355 208.746 29.362 208.444 29.1834C208.154 28.9937 207.825 28.8988 207.457 28.8988C207.099 28.8988 206.77 28.9937 206.469 29.1834C206.168 29.362 205.928 29.6355 205.749 30.0038C205.57 30.361 205.481 30.8074 205.481 31.3432C205.481 31.8789 205.57 32.3309 205.749 32.6993C205.928 33.0676 206.162 33.341 206.452 33.5196C206.753 33.6982 207.083 33.7875 207.44 33.7875ZM213.674 35.5454V27.1576H215.649L215.834 28.5305C216.09 28.0506 216.453 27.6711 216.922 27.392C217.402 27.1018 217.977 26.9567 218.646 26.9567C219.338 26.9567 219.924 27.1018 220.404 27.392C220.884 27.6822 221.247 28.1064 221.492 28.6644C221.749 29.2225 221.877 29.9089 221.877 30.7237V35.5454H219.634V30.9413C219.634 30.2717 219.489 29.7582 219.199 29.4011C218.92 29.0328 218.484 28.8486 217.893 28.8486C217.513 28.8486 217.173 28.9379 216.872 29.1165C216.581 29.295 216.353 29.5518 216.185 29.8866C216.018 30.2214 215.934 30.6288 215.934 31.1088V35.5454H213.674ZM228.299 35.5454V26.354C228.299 25.6509 228.416 25.0928 228.651 24.6798C228.896 24.2669 229.237 23.9655 229.672 23.7758C230.107 23.586 230.621 23.4911 231.212 23.4911H232.217V25.4165H231.564C231.207 25.4165 230.95 25.489 230.794 25.6341C230.637 25.7681 230.559 26.008 230.559 26.354V35.5454H228.299ZM227.161 29.0328V27.1576H232.367V29.0328H227.161ZM237.768 35.7463C236.965 35.7463 236.239 35.5622 235.592 35.1938C234.956 34.8143 234.448 34.2953 234.069 33.6368C233.7 32.9671 233.516 32.2082 233.516 31.3599C233.516 30.4893 233.7 29.7248 234.069 29.0662C234.448 28.3966 234.961 27.8776 235.609 27.5092C236.256 27.1409 236.982 26.9567 237.785 26.9567C238.6 26.9567 239.326 27.1409 239.962 27.5092C240.609 27.8776 241.117 28.391 241.485 29.0495C241.865 29.708 242.054 30.4782 242.054 31.3599C242.054 32.2193 241.865 32.9783 241.485 33.6368C241.117 34.2953 240.609 34.8143 239.962 35.1938C239.314 35.5622 238.583 35.7463 237.768 35.7463ZM237.768 33.7875C238.137 33.7875 238.466 33.6982 238.756 33.5196C239.058 33.341 239.298 33.0676 239.476 32.6993C239.655 32.3309 239.744 31.8789 239.744 31.3432C239.744 30.8074 239.655 30.361 239.476 30.0038C239.309 29.6355 239.074 29.362 238.773 29.1834C238.483 28.9937 238.154 28.8988 237.785 28.8988C237.428 28.8988 237.099 28.9937 236.797 29.1834C236.496 29.362 236.256 29.6355 236.078 30.0038C235.899 30.361 235.81 30.8074 235.81 31.3432C235.81 31.8789 235.899 32.3309 236.078 32.6993C236.256 33.0676 236.491 33.341 236.781 33.5196C237.082 33.6982 237.411 33.7875 237.768 33.7875ZM244.002 35.5454V27.1576H246.011L246.212 28.6979C246.424 28.3408 246.681 28.0338 246.983 27.7771C247.284 27.5092 247.63 27.3083 248.021 27.1744C248.422 27.0293 248.858 26.9567 249.326 26.9567V29.3341H248.606C248.26 29.3341 247.942 29.3732 247.652 29.4513C247.373 29.5294 247.128 29.6578 246.916 29.8364C246.703 30.015 246.542 30.2549 246.43 30.5563C246.318 30.8576 246.263 31.2371 246.263 31.6947V35.5454H244.002ZM132.704 57.7463C131.532 57.7463 130.522 57.4952 129.674 56.9929C128.826 56.4795 128.173 55.7708 127.715 54.8667C127.258 53.9515 127.029 52.8967 127.029 51.7024C127.029 50.5082 127.258 49.4534 127.715 48.5382C128.173 47.623 128.826 46.9086 129.674 46.3952C130.522 45.8818 131.532 45.6251 132.704 45.6251C134.122 45.6251 135.283 45.9767 136.187 46.6798C137.091 47.383 137.654 48.3764 137.878 49.6599H135.4C135.255 49.0349 134.953 48.5494 134.496 48.2033C134.038 47.8462 133.435 47.6676 132.688 47.6676C131.984 47.6676 131.382 47.835 130.879 48.1699C130.377 48.4935 129.992 48.9567 129.724 49.5595C129.468 50.151 129.339 50.8653 129.339 51.7024C129.339 52.5284 129.468 53.2427 129.724 53.8454C129.992 54.4481 130.377 54.9113 130.879 55.235C131.382 55.5587 131.984 55.7205 132.688 55.7205C133.435 55.7205 134.038 55.5587 134.496 55.235C134.953 54.9002 135.255 54.437 135.4 53.8454H137.878C137.654 55.062 137.091 56.0163 136.187 56.7083C135.283 57.4003 134.122 57.7463 132.704 57.7463ZM143.725 57.7463C142.922 57.7463 142.196 57.5622 141.549 57.1938C140.913 56.8143 140.405 56.2953 140.025 55.6368C139.657 54.9671 139.473 54.2082 139.473 53.3599C139.473 52.4893 139.657 51.7248 140.025 51.0662C140.405 50.3966 140.918 49.8776 141.566 49.5092C142.213 49.1409 142.938 48.9567 143.742 48.9567C144.557 48.9567 145.282 49.1409 145.919 49.5092C146.566 49.8776 147.074 50.391 147.442 51.0495C147.822 51.708 148.011 52.4782 148.011 53.3599C148.011 54.2193 147.822 54.9783 147.442 55.6368C147.074 56.2953 146.566 56.8143 145.919 57.1938C145.271 57.5622 144.54 57.7463 143.725 57.7463ZM143.725 55.7875C144.094 55.7875 144.423 55.6982 144.713 55.5196C145.014 55.341 145.254 55.0676 145.433 54.6993C145.612 54.3309 145.701 53.8789 145.701 53.3432C145.701 52.8074 145.612 52.361 145.433 52.0038C145.266 51.6355 145.031 51.362 144.73 51.1834C144.44 50.9937 144.11 50.8988 143.742 50.8988C143.385 50.8988 143.056 50.9937 142.754 51.1834C142.453 51.362 142.213 51.6355 142.034 52.0038C141.856 52.361 141.766 52.8074 141.766 53.3432C141.766 53.8789 141.856 54.3309 142.034 54.6993C142.213 55.0676 142.447 55.341 142.738 55.5196C143.039 55.6982 143.368 55.7875 143.725 55.7875ZM149.959 57.5454V49.1576H151.935L152.119 50.2626C152.387 49.8608 152.744 49.5427 153.19 49.3083C153.637 49.0739 154.145 48.9567 154.714 48.9567C155.138 48.9567 155.518 49.0125 155.852 49.1242C156.198 49.2246 156.5 49.3809 156.757 49.5929C157.013 49.805 157.231 50.0729 157.409 50.3966C157.722 49.9501 158.129 49.5985 158.632 49.3418C159.134 49.0851 159.681 48.9567 160.272 48.9567C161.009 48.9567 161.623 49.1018 162.114 49.392C162.616 49.6822 162.99 50.1119 163.236 50.6812C163.492 51.2392 163.621 51.9257 163.621 52.7404V57.5454H161.377V52.9413C161.377 52.2717 161.243 51.7582 160.975 51.4011C160.708 51.0328 160.3 50.8486 159.753 50.8486C159.396 50.8486 159.078 50.9379 158.799 51.1165C158.52 51.295 158.302 51.5573 158.146 51.9033C157.99 52.2382 157.912 52.64 157.912 53.1088V57.5454H155.668V52.9413C155.668 52.2717 155.534 51.7582 155.266 51.4011C154.999 51.0328 154.58 50.8486 154.011 50.8486C153.665 50.8486 153.352 50.9379 153.073 51.1165C152.805 51.295 152.593 51.5573 152.437 51.9033C152.292 52.2382 152.219 52.64 152.219 53.1088V57.5454H149.959ZM165.72 61.2287V49.1576H167.729L167.98 50.3128C168.159 50.0673 168.366 49.8441 168.6 49.6432C168.845 49.4311 169.141 49.2637 169.487 49.1409C169.833 49.0181 170.235 48.9567 170.693 48.9567C171.485 48.9567 172.183 49.1465 172.785 49.526C173.388 49.9055 173.863 50.43 174.209 51.0997C174.566 51.7582 174.744 52.5116 174.744 53.3599C174.744 54.2082 174.566 54.9616 174.209 55.6201C173.851 56.2786 173.371 56.7976 172.769 57.1771C172.166 57.5566 171.48 57.7463 170.709 57.7463C170.084 57.7463 169.543 57.6347 169.085 57.4115C168.628 57.1771 168.26 56.859 167.98 56.4572V61.2287H165.72ZM170.174 55.7708C170.62 55.7708 171.011 55.6703 171.346 55.4694C171.692 55.2685 171.959 54.9839 172.149 54.6156C172.35 54.2472 172.451 53.8287 172.451 53.3599C172.451 52.88 172.35 52.4558 172.149 52.0875C171.959 51.7192 171.692 51.4346 171.346 51.2337C171.011 51.0216 170.62 50.9156 170.174 50.9156C169.738 50.9156 169.348 51.0216 169.002 51.2337C168.656 51.4346 168.388 51.7192 168.198 52.0875C168.008 52.4558 167.914 52.8744 167.914 53.3432C167.914 53.8231 168.008 54.2472 168.198 54.6156C168.388 54.9839 168.656 55.2685 169.002 55.4694C169.348 55.6703 169.738 55.7708 170.174 55.7708ZM179.822 57.7463C179.141 57.7463 178.555 57.6068 178.064 57.3278C177.584 57.0376 177.215 56.6134 176.959 56.0554C176.702 55.4861 176.574 54.7941 176.574 53.9794V49.1576H178.834V53.7617C178.834 54.4426 178.973 54.9616 179.252 55.3187C179.531 55.6647 179.972 55.8377 180.575 55.8377C180.955 55.8377 181.289 55.754 181.58 55.5866C181.881 55.408 182.115 55.1513 182.283 54.8165C182.45 54.4816 182.534 54.0742 182.534 53.5943V49.1576H184.794V57.5454H182.802L182.634 56.1726C182.378 56.6413 182.009 57.0208 181.529 57.311C181.049 57.6012 180.48 57.7463 179.822 57.7463ZM190.791 57.5454C190.2 57.5454 189.681 57.4561 189.234 57.2775C188.799 57.0878 188.459 56.7809 188.213 56.3567C187.967 55.9214 187.845 55.3299 187.845 54.5821V51.0328H186.405V49.1576H187.845L188.096 46.864H190.105V49.1576H192.332V51.0328H190.105V54.6156C190.105 54.995 190.189 55.2573 190.356 55.4024C190.523 55.5475 190.808 55.6201 191.21 55.6201H192.298V57.5454H190.791ZM194.268 57.5454V49.1576H196.528V57.5454H194.268ZM195.406 47.969C194.993 47.969 194.659 47.8518 194.402 47.6174C194.145 47.3718 194.017 47.0649 194.017 46.6966C194.017 46.3282 194.145 46.0269 194.402 45.7925C194.659 45.5469 194.993 45.4242 195.406 45.4242C195.819 45.4242 196.154 45.5469 196.411 45.7925C196.679 46.0269 196.813 46.3282 196.813 46.6966C196.813 47.0649 196.679 47.3718 196.411 47.6174C196.154 47.8518 195.819 47.969 195.406 47.969ZM198.796 57.5454V49.1576H200.771L200.955 50.5305C201.212 50.0506 201.575 49.6711 202.044 49.392C202.524 49.1018 203.098 48.9567 203.768 48.9567C204.46 48.9567 205.046 49.1018 205.526 49.392C206.006 49.6822 206.369 50.1064 206.614 50.6644C206.871 51.2225 206.999 51.9089 206.999 52.7237V57.5454H204.756V52.9413C204.756 52.2717 204.611 51.7582 204.321 51.4011C204.041 51.0328 203.606 50.8486 203.015 50.8486C202.635 50.8486 202.295 50.9379 201.993 51.1165C201.703 51.295 201.474 51.5518 201.307 51.8866C201.14 52.2214 201.056 52.6288 201.056 53.1088V57.5454H198.796ZM212.729 61.4296C211.925 61.4296 211.222 61.3291 210.619 61.1282C210.028 60.9385 209.564 60.6427 209.229 60.2409C208.906 59.8502 208.744 59.3647 208.744 58.7843C208.744 58.3937 208.844 58.0253 209.045 57.6793C209.246 57.3333 209.536 57.0208 209.916 56.7418C210.307 56.4516 210.792 56.206 211.372 56.0051L212.226 57.1269C211.713 57.2943 211.339 57.5008 211.105 57.7463C210.881 58.003 210.77 58.2709 210.77 58.5499C210.77 58.8066 210.853 59.0243 211.021 59.2029C211.199 59.3815 211.434 59.5098 211.724 59.5879C212.025 59.6772 212.36 59.7219 212.729 59.7219C213.075 59.7219 213.381 59.6772 213.649 59.5879C213.917 59.4986 214.124 59.3647 214.269 59.1861C214.414 59.0187 214.486 58.8178 214.486 58.5834C214.486 58.2821 214.38 58.0365 214.168 57.8468C213.956 57.657 213.538 57.5398 212.913 57.4952C212.343 57.4505 211.836 57.3892 211.389 57.311C210.954 57.2217 210.569 57.1213 210.234 57.0097C209.91 56.8981 209.631 56.7697 209.397 56.6246C209.162 56.4795 208.973 56.3344 208.828 56.1893V55.8042L210.619 53.8622L212.226 54.3812L210.134 56.4739L210.786 55.3522C210.898 55.4303 211.01 55.5029 211.121 55.5698C211.244 55.6257 211.395 55.6815 211.573 55.7373C211.752 55.7819 211.981 55.8266 212.26 55.8712C212.55 55.9047 212.918 55.9438 213.365 55.9884C214.101 56.0442 214.704 56.1781 215.173 56.3902C215.653 56.6023 216.004 56.8869 216.228 57.2441C216.451 57.6012 216.562 58.0309 216.562 58.5332C216.562 59.0355 216.423 59.5042 216.144 59.9395C215.876 60.386 215.458 60.7431 214.888 61.011C214.33 61.29 213.61 61.4296 212.729 61.4296ZM212.745 55.0676C212.042 55.0676 211.434 54.9337 210.92 54.6658C210.418 54.3867 210.028 54.0184 209.748 53.5608C209.481 53.092 209.347 52.573 209.347 52.0038C209.347 51.4346 209.481 50.9211 209.748 50.4635C210.028 50.0059 210.418 49.6432 210.92 49.3753C211.434 49.0963 212.042 48.9567 212.745 48.9567C213.46 48.9567 214.068 49.0963 214.57 49.3753C215.072 49.6432 215.458 50.0059 215.725 50.4635C216.004 50.9211 216.144 51.4346 216.144 52.0038C216.144 52.573 216.004 53.092 215.725 53.5608C215.458 54.0184 215.072 54.3867 214.57 54.6658C214.068 54.9337 213.46 55.0676 212.745 55.0676ZM212.745 53.3432C213.169 53.3432 213.515 53.2315 213.783 53.0083C214.062 52.7739 214.202 52.4447 214.202 52.0205C214.202 51.5852 214.062 51.256 213.783 51.0328C213.515 50.8095 213.169 50.6979 212.745 50.6979C212.31 50.6979 211.953 50.8095 211.674 51.0328C211.406 51.256 211.272 51.5852 211.272 52.0205C211.272 52.4447 211.406 52.7739 211.674 53.0083C211.953 53.2315 212.31 53.3432 212.745 53.3432ZM214.135 50.7481L213.767 49.1576H217.232V50.497L214.135 50.7481ZM223.059 57.5454V45.826H225.772L229.371 53.1255L232.92 45.826H235.616V57.5454H233.356V49.6599L230.242 55.8879H228.45L225.319 49.6599V57.5454H223.059ZM240.717 57.7463C240.014 57.7463 239.434 57.6347 238.976 57.4115C238.519 57.1771 238.178 56.8701 237.955 56.4907C237.732 56.1 237.62 55.6759 237.62 55.2183C237.62 54.7048 237.749 54.2528 238.005 53.8622C238.273 53.4715 238.675 53.1646 239.211 52.9413C239.746 52.7181 240.416 52.6065 241.22 52.6065H243.312C243.312 52.1935 243.257 51.8531 243.145 51.5852C243.033 51.3174 242.86 51.1165 242.626 50.9825C242.392 50.8486 242.079 50.7816 241.688 50.7816C241.264 50.7816 240.902 50.8765 240.6 51.0662C240.299 51.256 240.115 51.5406 240.048 51.9201H237.855C237.91 51.3062 238.106 50.7816 238.441 50.3463C238.787 49.8999 239.239 49.5595 239.797 49.3251C240.366 49.0795 241.002 48.9567 241.705 48.9567C242.498 48.9567 243.184 49.0907 243.765 49.3586C244.345 49.6153 244.791 49.9947 245.104 50.497C245.416 50.9993 245.573 51.6187 245.573 52.3554V57.5454H243.664L243.413 56.2563C243.29 56.4795 243.145 56.6804 242.978 56.859C242.81 57.0376 242.615 57.1938 242.392 57.3278C242.168 57.4617 241.917 57.5622 241.638 57.6291C241.359 57.7072 241.052 57.7463 240.717 57.7463ZM241.253 56.0051C241.543 56.0051 241.8 55.9549 242.023 55.8545C242.258 55.7429 242.459 55.5978 242.626 55.4192C242.793 55.2294 242.922 55.0174 243.011 54.783C243.112 54.5374 243.179 54.2807 243.212 54.0128V53.9961H241.488C241.142 53.9961 240.857 54.0407 240.634 54.13C240.422 54.2082 240.265 54.3254 240.165 54.4816C240.065 54.6379 240.014 54.8165 240.014 55.0174C240.014 55.2294 240.065 55.408 240.165 55.5531C240.265 55.6982 240.411 55.8098 240.6 55.8879C240.79 55.9661 241.008 56.0051 241.253 56.0051ZM251.75 57.7463C250.902 57.7463 250.148 57.5622 249.49 57.1938C248.831 56.8143 248.318 56.2953 247.949 55.6368C247.581 54.9783 247.397 54.2249 247.397 53.3766C247.397 52.5061 247.581 51.7415 247.949 51.083C248.318 50.4133 248.831 49.8943 249.49 49.526C250.148 49.1465 250.902 48.9567 251.75 48.9567C252.832 48.9567 253.737 49.2358 254.462 49.7938C255.199 50.3519 255.667 51.1276 255.868 52.121H253.474C253.374 51.7303 253.167 51.429 252.855 51.2169C252.542 50.9937 252.168 50.8821 251.733 50.8821C251.342 50.8821 250.991 50.9825 250.678 51.1834C250.377 51.3732 250.137 51.6522 249.958 52.0205C249.78 52.3889 249.691 52.8297 249.691 53.3432C249.691 53.7338 249.741 54.0798 249.841 54.3812C249.953 54.6825 250.098 54.9448 250.277 55.168C250.455 55.3801 250.667 55.5419 250.913 55.6536C251.169 55.7652 251.443 55.821 251.733 55.821C252.023 55.821 252.286 55.7763 252.52 55.687C252.754 55.5866 252.955 55.4415 253.123 55.2518C253.301 55.062 253.418 54.8332 253.474 54.5653H255.868C255.667 55.5364 255.199 56.3121 254.462 56.8925C253.725 57.4617 252.821 57.7463 251.75 57.7463ZM257.818 57.5454V45.4911H260.078V50.3966C260.346 49.9613 260.714 49.6153 261.183 49.3586C261.652 49.0907 262.193 48.9567 262.807 48.9567C263.51 48.9567 264.102 49.1018 264.582 49.392C265.062 49.6822 265.424 50.1119 265.67 50.6812C265.915 51.2392 266.038 51.9312 266.038 52.7572V57.5454H263.795V52.9581C263.795 52.2884 263.655 51.7694 263.376 51.4011C263.097 51.0328 262.656 50.8486 262.054 50.8486C261.685 50.8486 261.345 50.9435 261.032 51.1332C260.731 51.3118 260.497 51.5685 260.329 51.9033C260.162 52.2382 260.078 52.6456 260.078 53.1255V57.5454H257.818ZM268.201 57.5454V49.1576H270.461V57.5454H268.201ZM269.34 47.969C268.927 47.969 268.592 47.8518 268.335 47.6174C268.078 47.3718 267.95 47.0649 267.95 46.6966C267.95 46.3282 268.078 46.0269 268.335 45.7925C268.592 45.5469 268.927 45.4242 269.34 45.4242C269.753 45.4242 270.087 45.5469 270.344 45.7925C270.612 46.0269 270.746 46.3282 270.746 46.6966C270.746 47.0649 270.612 47.3718 270.344 47.6174C270.087 47.8518 269.753 47.969 269.34 47.969ZM272.729 57.5454V49.1576H274.704L274.888 50.5305C275.145 50.0506 275.508 49.6711 275.977 49.392C276.457 49.1018 277.031 48.9567 277.701 48.9567C278.393 48.9567 278.979 49.1018 279.459 49.392C279.939 49.6822 280.302 50.1064 280.547 50.6644C280.804 51.2225 280.932 51.9089 280.932 52.7237V57.5454H278.689V52.9413C278.689 52.2717 278.544 51.7582 278.254 51.4011C277.975 51.0328 277.539 50.8486 276.948 50.8486C276.568 50.8486 276.228 50.9379 275.926 51.1165C275.636 51.295 275.407 51.5518 275.24 51.8866C275.073 52.2214 274.989 52.6288 274.989 53.1088V57.5454H272.729ZM287.097 57.7463C286.249 57.7463 285.495 57.5677 284.837 57.2106C284.189 56.8422 283.682 56.3344 283.313 55.687C282.956 55.0285 282.778 54.2751 282.778 53.4269C282.778 52.5451 282.956 51.7694 283.313 51.0997C283.67 50.43 284.173 49.9055 284.82 49.526C285.479 49.1465 286.238 48.9567 287.097 48.9567C287.934 48.9567 288.665 49.1409 289.29 49.5092C289.915 49.8664 290.401 50.3575 290.747 50.9825C291.104 51.5964 291.282 52.2996 291.282 53.092C291.282 53.2036 291.277 53.332 291.266 53.4771C291.266 53.611 291.26 53.7505 291.249 53.8956H284.385V52.5228H288.989C288.966 51.9871 288.777 51.5629 288.42 51.2504C288.062 50.9379 287.627 50.7816 287.114 50.7816C286.723 50.7816 286.366 50.8709 286.042 51.0495C285.719 51.2169 285.462 51.4792 285.272 51.8364C285.093 52.1824 285.004 52.6288 285.004 53.1757V53.6613C285.004 54.1189 285.088 54.5151 285.255 54.8499C285.434 55.1848 285.679 55.4471 285.992 55.6368C286.305 55.8154 286.667 55.9047 287.08 55.9047C287.493 55.9047 287.834 55.8154 288.101 55.6368C288.381 55.4582 288.593 55.2238 288.738 54.9337H291.031C290.875 55.4582 290.613 55.9382 290.244 56.3735C289.876 56.7976 289.424 57.1324 288.888 57.378C288.353 57.6235 287.755 57.7463 287.097 57.7463ZM293.117 57.5454V49.1576H295.126L295.327 50.6979C295.539 50.3408 295.795 50.0338 296.097 49.7771C296.398 49.5092 296.744 49.3083 297.135 49.1744C297.537 49.0293 297.972 48.9567 298.441 48.9567V51.3341H297.721C297.375 51.3341 297.057 51.3732 296.767 51.4513C296.488 51.5294 296.242 51.6578 296.03 51.8364C295.818 52.015 295.656 52.2549 295.544 52.5563C295.433 52.8576 295.377 53.2371 295.377 53.6947V57.5454H293.117ZM300.989 61.2287L303.049 56.6079H302.546L299.164 49.1576H301.609L304.036 54.5486L306.213 49.1576H308.624L303.383 61.2287H300.989Z" fill="#F0F1FA"/>
<path d="M129.854 82.8638L126.552 74.0742H127.694L130.469 81.7462L133.269 74.0742H134.387L131.085 82.8638H129.854ZM135.617 82.8638V74.0742H136.672V82.8638H135.617ZM140.631 82.8638V74.9406H138.007V74.0742H144.31V74.9406H141.686V82.8638H140.631ZM151.783 83.0144C151.138 83.0144 150.578 82.8973 150.1 82.6629C149.623 82.4285 149.255 82.102 148.995 81.6835C148.736 81.2649 148.606 80.7794 148.606 80.2269H149.711C149.711 80.5701 149.791 80.8882 149.95 81.1812C150.109 81.4658 150.339 81.696 150.64 81.8718C150.95 82.0392 151.331 82.1229 151.783 82.1229C152.176 82.1229 152.511 82.0602 152.788 81.9346C153.072 81.8006 153.286 81.6207 153.428 81.3947C153.579 81.1686 153.654 80.9133 153.654 80.6287C153.654 80.2939 153.579 80.0218 153.428 79.8125C153.286 79.5949 153.089 79.4191 152.838 79.2852C152.595 79.1429 152.31 79.0215 151.984 78.921C151.657 78.8122 151.314 78.6992 150.954 78.582C150.243 78.3476 149.724 78.0546 149.397 77.703C149.071 77.3515 148.908 76.8952 148.908 76.3344C148.908 75.8572 149.016 75.4387 149.234 75.0787C149.46 74.7188 149.778 74.4383 150.188 74.2374C150.607 74.0282 151.101 73.9235 151.67 73.9235C152.231 73.9235 152.716 74.0282 153.127 74.2374C153.545 74.4467 153.872 74.7355 154.106 75.1038C154.34 75.4638 154.458 75.8823 154.458 76.3595H153.353C153.353 76.1167 153.29 75.8782 153.164 75.6438C153.039 75.4094 152.846 75.2168 152.587 75.0662C152.335 74.9071 152.017 74.8276 151.632 74.8276C151.314 74.8192 151.03 74.8736 150.778 74.9908C150.536 75.0996 150.343 75.2587 150.201 75.468C150.067 75.6772 150 75.9326 150 76.2339C150 76.5185 150.059 76.7487 150.176 76.9245C150.301 77.1003 150.477 77.251 150.703 77.3766C150.938 77.4938 151.21 77.6026 151.519 77.703C151.829 77.8035 152.172 77.9165 152.549 78.0421C152.976 78.1844 153.353 78.3602 153.679 78.5694C154.014 78.7703 154.273 79.0298 154.458 79.3479C154.65 79.666 154.746 80.072 154.746 80.5659C154.746 80.9845 154.633 81.3821 154.407 81.7588C154.19 82.1271 153.863 82.4285 153.428 82.6629C152.993 82.8973 152.444 83.0144 151.783 83.0144ZM158.727 82.8638C158.35 82.8638 158.024 82.8052 157.748 82.688C157.472 82.5708 157.258 82.3741 157.107 82.0978C156.965 81.8132 156.894 81.4323 156.894 80.9552V77.3515H155.776V76.4599H156.894L157.032 74.8904H157.949V76.4599H159.794V77.3515H157.949V80.9552C157.949 81.3486 158.028 81.6165 158.187 81.7588C158.346 81.8927 158.627 81.9597 159.029 81.9597H159.732V82.8638H158.727ZM163.517 83.0144C163.032 83.0144 162.605 82.9182 162.237 82.7256C161.877 82.5331 161.596 82.2401 161.395 81.8467C161.203 81.4533 161.106 80.9594 161.106 80.365V76.4599H162.161V80.252C162.161 80.8715 162.299 81.3361 162.576 81.6458C162.86 81.9555 163.254 82.1104 163.756 82.1104C164.099 82.1104 164.409 82.0267 164.685 81.8592C164.961 81.6918 165.179 81.4491 165.338 81.131C165.505 80.8129 165.589 80.4236 165.589 79.9632V76.4599H166.644V82.8638H165.69L165.627 81.7714C165.443 82.1648 165.162 82.4703 164.785 82.688C164.417 82.9056 163.994 83.0144 163.517 83.0144ZM171.18 83.0144C170.577 83.0144 170.045 82.868 169.585 82.575C169.124 82.282 168.769 81.8844 168.518 81.3821C168.266 80.8715 168.141 80.2939 168.141 79.6493C168.141 79.0047 168.266 78.4313 168.518 77.9291C168.769 77.4268 169.124 77.0334 169.585 76.7487C170.054 76.4558 170.589 76.3093 171.192 76.3093C171.711 76.3093 172.163 76.4139 172.548 76.6232C172.933 76.8324 173.23 77.1254 173.44 77.5021V73.8231H174.494V82.8638H173.54L173.452 81.8216C173.318 82.0309 173.147 82.2276 172.937 82.4117C172.737 82.5875 172.49 82.734 172.197 82.8512C171.904 82.96 171.565 83.0144 171.18 83.0144ZM171.305 82.0978C171.724 82.0978 172.092 81.9974 172.41 81.7965C172.728 81.5956 172.971 81.3151 173.138 80.9552C173.314 80.5869 173.402 80.1557 173.402 79.6619C173.402 79.168 173.314 78.741 173.138 78.3811C172.971 78.0128 172.728 77.7281 172.41 77.5272C172.092 77.3263 171.724 77.2259 171.305 77.2259C170.903 77.2259 170.543 77.3263 170.225 77.5272C169.907 77.7281 169.66 78.0128 169.484 78.3811C169.309 78.741 169.221 79.168 169.221 79.6619C169.221 80.1557 169.309 80.5869 169.484 80.9552C169.66 81.3151 169.907 81.5956 170.225 81.7965C170.543 81.9974 170.903 82.0978 171.305 82.0978ZM179.027 83.0144C178.433 83.0144 177.906 82.8763 177.445 82.6001C176.993 82.3238 176.637 81.9346 176.378 81.4323C176.118 80.9217 175.989 80.3315 175.989 79.6619C175.989 78.9838 176.114 78.3936 176.365 77.8914C176.625 77.3891 176.985 76.9999 177.445 76.7236C177.914 76.4474 178.45 76.3093 179.052 76.3093C179.672 76.3093 180.195 76.4474 180.622 76.7236C181.057 76.9999 181.388 77.3682 181.614 77.8286C181.84 78.289 181.953 78.7871 181.953 79.3228C181.953 79.4065 181.953 79.4944 181.953 79.5865C181.953 79.6786 181.949 79.7832 181.94 79.9004H176.78V79.0843H180.923C180.898 78.4815 180.706 78.0169 180.346 77.6905C179.994 77.364 179.555 77.2008 179.027 77.2008C178.667 77.2008 178.333 77.2845 178.023 77.4519C177.721 77.611 177.479 77.8537 177.295 78.1802C177.11 78.4983 177.018 78.8959 177.018 79.3731V79.7246C177.018 80.252 177.11 80.6957 177.295 81.0556C177.487 81.4156 177.734 81.6835 178.035 81.8592C178.345 82.035 178.676 82.1229 179.027 82.1229C179.471 82.1229 179.835 82.0267 180.12 81.8341C180.404 81.6416 180.609 81.3779 180.735 81.0431H181.777C181.677 81.4198 181.501 81.7588 181.25 82.0602C180.999 82.3531 180.685 82.5875 180.308 82.7633C179.94 82.9307 179.513 83.0144 179.027 83.0144ZM183.389 82.8638V76.4599H184.343L184.393 77.5398C184.594 77.1547 184.879 76.8534 185.247 76.6357C185.624 76.4181 186.051 76.3093 186.528 76.3093C187.014 76.3093 187.436 76.4055 187.796 76.5981C188.156 76.7906 188.437 77.0836 188.638 77.477C188.839 77.8621 188.939 78.356 188.939 78.9587V82.8638H187.884V79.0717C187.884 78.4522 187.742 77.9876 187.457 77.6779C187.181 77.3682 186.792 77.2133 186.29 77.2133C185.938 77.2133 185.624 77.297 185.348 77.4645C185.072 77.6319 184.85 77.8746 184.682 78.1927C184.523 78.5025 184.444 78.8917 184.444 79.3605V82.8638H183.389ZM193.123 82.8638C192.746 82.8638 192.42 82.8052 192.143 82.688C191.867 82.5708 191.654 82.3741 191.503 82.0978C191.361 81.8132 191.289 81.4323 191.289 80.9552V77.3515H190.172V76.4599H191.289L191.428 74.8904H192.344V76.4599H194.19V77.3515H192.344V80.9552C192.344 81.3486 192.424 81.6165 192.583 81.7588C192.742 81.8927 193.022 81.9597 193.424 81.9597H194.127V82.8638H193.123ZM131.009 99.0144C130.164 99.0144 129.431 98.8261 128.812 98.4494C128.192 98.0643 127.715 97.5328 127.38 96.8547C127.046 96.1683 126.878 95.3731 126.878 94.469C126.878 93.5649 127.046 92.7739 127.38 92.0958C127.715 91.4094 128.192 90.8778 128.812 90.5011C129.431 90.1161 130.164 89.9235 131.009 89.9235C132.014 89.9235 132.826 90.1621 133.445 90.6392C134.073 91.1164 134.475 91.7903 134.651 92.6608H133.495C133.353 92.1167 133.077 91.6814 132.667 91.355C132.265 91.0201 131.712 90.8527 131.009 90.8527C130.39 90.8527 129.85 90.9992 129.389 91.2922C128.937 91.5768 128.586 91.9912 128.335 92.5353C128.084 93.071 127.958 93.7156 127.958 94.469C127.958 95.2224 128.084 95.8711 128.335 96.4152C128.586 96.951 128.937 97.3654 129.389 97.6583C129.85 97.943 130.39 98.0853 131.009 98.0853C131.712 98.0853 132.265 97.9262 132.667 97.6081C133.077 97.2816 133.353 96.8505 133.495 96.3148H134.651C134.475 97.1603 134.073 97.8216 133.445 98.2987C132.826 98.7759 132.014 99.0144 131.009 99.0144ZM136.13 98.8638V89.8231H137.185V93.5272C137.394 93.1422 137.687 92.845 138.064 92.6357C138.449 92.4181 138.868 92.3093 139.32 92.3093C139.805 92.3093 140.228 92.4055 140.588 92.5981C140.948 92.7906 141.224 93.0878 141.417 93.4896C141.609 93.883 141.705 94.3811 141.705 94.9838V98.8638H140.663V95.0968C140.663 94.4774 140.525 94.0086 140.249 93.6905C139.981 93.3724 139.596 93.2133 139.094 93.2133C138.734 93.2133 138.407 93.3012 138.114 93.477C137.83 93.6444 137.604 93.8914 137.436 94.2179C137.269 94.536 137.185 94.9294 137.185 95.3982V98.8638H136.13ZM145.437 99.0144C144.926 99.0144 144.499 98.9266 144.156 98.7508C143.821 98.5666 143.57 98.3238 143.402 98.0225C143.235 97.7128 143.151 97.3821 143.151 97.0305C143.151 96.6036 143.26 96.2395 143.478 95.9381C143.704 95.6367 144.018 95.4107 144.419 95.26C144.83 95.101 145.307 95.0215 145.851 95.0215H147.521C147.521 94.6197 147.462 94.2848 147.345 94.0169C147.228 93.7407 147.052 93.5356 146.818 93.4017C146.592 93.2677 146.303 93.2008 145.951 93.2008C145.558 93.2008 145.219 93.3012 144.934 93.5021C144.65 93.6947 144.474 93.9835 144.407 94.3685H143.327C143.377 93.9249 143.528 93.5524 143.779 93.251C144.03 92.9413 144.348 92.7069 144.733 92.5478C145.118 92.3888 145.524 92.3093 145.951 92.3093C146.537 92.3093 147.023 92.4181 147.408 92.6357C147.801 92.845 148.094 93.1422 148.287 93.5272C148.479 93.9039 148.576 94.3476 148.576 94.8582V98.8638H147.634L147.571 97.7462C147.487 97.922 147.379 98.0895 147.245 98.2485C147.119 98.3992 146.968 98.5331 146.793 98.6503C146.617 98.7591 146.416 98.847 146.19 98.914C145.972 98.981 145.721 99.0144 145.437 99.0144ZM145.6 98.1229C145.893 98.1229 146.156 98.0643 146.391 97.9471C146.625 97.8216 146.826 97.6542 146.994 97.4449C147.169 97.2272 147.299 96.9887 147.383 96.7292C147.475 96.4613 147.521 96.185 147.521 95.9004V95.8376H145.939C145.537 95.8376 145.211 95.8879 144.959 95.9883C144.708 96.0804 144.528 96.2143 144.419 96.3901C144.311 96.5659 144.256 96.7626 144.256 96.9803C144.256 97.2147 144.306 97.4198 144.407 97.5956C144.516 97.763 144.671 97.8927 144.872 97.9848C145.072 98.0769 145.315 98.1229 145.6 98.1229ZM150.232 101.626V92.4599H151.186L151.274 93.4896C151.408 93.2803 151.58 93.0878 151.789 92.912C151.998 92.7278 152.249 92.5813 152.542 92.4725C152.835 92.3637 153.17 92.3093 153.547 92.3093C154.158 92.3093 154.689 92.4558 155.141 92.7487C155.594 93.0417 155.945 93.4393 156.196 93.9416C156.456 94.4439 156.585 95.0215 156.585 95.6744C156.585 96.319 156.456 96.8924 156.196 97.3947C155.945 97.8969 155.589 98.2945 155.129 98.5875C154.677 98.8721 154.145 99.0144 153.534 99.0144C153.024 99.0144 152.572 98.9098 152.178 98.7005C151.793 98.4913 151.496 98.1983 151.287 97.8216V101.626H150.232ZM153.421 98.0978C153.823 98.0978 154.179 97.9974 154.489 97.7965C154.807 97.5956 155.054 97.3151 155.229 96.9552C155.414 96.5869 155.506 96.1557 155.506 95.6619C155.506 95.168 155.414 94.741 155.229 94.3811C155.054 94.0128 154.807 93.7281 154.489 93.5272C154.179 93.3263 153.823 93.2259 153.421 93.2259C153.003 93.2259 152.634 93.3263 152.316 93.5272C151.998 93.7281 151.751 94.0128 151.575 94.3811C151.4 94.741 151.312 95.168 151.312 95.6619C151.312 96.1557 151.4 96.5869 151.575 96.9552C151.751 97.3151 151.998 97.5956 152.316 97.7965C152.634 97.9974 153.003 98.0978 153.421 98.0978ZM160.346 98.8638C159.969 98.8638 159.643 98.8052 159.366 98.688C159.09 98.5708 158.877 98.3741 158.726 98.0978C158.584 97.8132 158.513 97.4323 158.513 96.9552V93.3515H157.395V92.4599H158.513L158.651 90.8904H159.567V92.4599H161.413V93.3515H159.567V96.9552C159.567 97.3486 159.647 97.6165 159.806 97.7588C159.965 97.8927 160.245 97.9597 160.647 97.9597H161.35V98.8638H160.346ZM165.416 99.0144C164.822 99.0144 164.295 98.8763 163.834 98.6001C163.382 98.3238 163.026 97.9346 162.767 97.4323C162.507 96.9217 162.378 96.3315 162.378 95.6619C162.378 94.9838 162.503 94.3936 162.754 93.8914C163.014 93.3891 163.374 92.9999 163.834 92.7236C164.303 92.4474 164.839 92.3093 165.441 92.3093C166.061 92.3093 166.584 92.4474 167.011 92.7236C167.446 92.9999 167.777 93.3682 168.003 93.8286C168.229 94.289 168.342 94.7871 168.342 95.3228C168.342 95.4065 168.342 95.4944 168.342 95.5865C168.342 95.6786 168.338 95.7832 168.329 95.9004H163.169V95.0843H167.312C167.287 94.4815 167.095 94.0169 166.735 93.6905C166.383 93.364 165.944 93.2008 165.416 93.2008C165.056 93.2008 164.721 93.2845 164.412 93.4519C164.11 93.611 163.868 93.8537 163.683 94.1802C163.499 94.4983 163.407 94.8959 163.407 95.3731V95.7246C163.407 96.252 163.499 96.6957 163.683 97.0556C163.876 97.4156 164.123 97.6835 164.424 97.8592C164.734 98.035 165.065 98.1229 165.416 98.1229C165.86 98.1229 166.224 98.0267 166.509 97.8341C166.793 97.6416 166.998 97.3779 167.124 97.0431H168.166C168.066 97.4198 167.89 97.7588 167.639 98.0602C167.388 98.3531 167.074 98.5875 166.697 98.7633C166.329 98.9307 165.902 99.0144 165.416 99.0144ZM169.778 98.8638V92.4599H170.732L170.808 93.6654C170.95 93.3724 171.134 93.1254 171.36 92.9245C171.594 92.7236 171.871 92.5729 172.189 92.4725C172.515 92.3637 172.884 92.3093 173.294 92.3093V93.4142H172.842C172.574 93.4142 172.318 93.4519 172.076 93.5272C171.833 93.5942 171.615 93.7072 171.423 93.8663C171.239 94.0169 171.092 94.2262 170.983 94.4941C170.883 94.762 170.833 95.0968 170.833 95.4986V98.8638H169.778Z" fill="#F0F1FA"/>
</g>
<defs>
<clipPath id="clip0_417_13046">
<rect width="330.558" height="106.638" fill="white" transform="translate(0.832031 0.754883)"/>
</clipPath>
</defs>
</svg>
