<svg width="455" height="158" viewBox="0 0 455 158" fill="none" xmlns="http://www.w3.org/2000/svg">
<path fill-rule="evenodd" clip-rule="evenodd" d="M99.5296 7.41307C89.3769 -2.47102 72.9162 -2.47102 62.7635 7.41307L7.6145 61.1033C-2.53816 70.9874 -2.53817 87.0126 7.61449 96.8967L62.7635 150.587C72.9162 160.471 89.3769 160.471 99.5296 150.587L154.679 96.8967C164.831 87.0126 164.831 70.9874 154.679 61.1033L99.5296 7.41307ZM58.663 84.2172C58.652 86.0648 58.6849 87.9231 58.8824 89.7708C58.916 90.0712 58.9583 90.3717 59.0004 90.6707C59.0405 90.956 59.0806 91.2408 59.1127 91.5223C58.9548 91.6249 58.7968 91.618 58.6388 91.6112C58.6292 91.6108 58.6196 91.6103 58.61 91.61C58.5801 91.6087 58.5502 91.6078 58.5204 91.6078H51.7517C51.7225 91.6078 51.6932 91.6066 51.6639 91.6054C51.6054 91.603 51.5469 91.6006 51.4884 91.6078C51.2032 91.6398 51.1154 91.501 51.1045 91.234C51.0848 90.6851 51.0534 90.14 51.0219 89.5942L51.0218 89.593C51.0007 89.2258 50.9795 88.8584 50.9618 88.4892C50.9547 88.3438 50.9568 88.1984 50.9592 88.0356C50.9605 87.9473 50.9618 87.8537 50.9618 87.7523C50.6866 87.8444 50.5867 88.0087 50.493 88.1628C50.4671 88.2053 50.4418 88.247 50.4133 88.2863C49.3053 89.8242 47.945 91.0417 46.0911 91.6825C44.9392 92.0884 43.7434 92.2379 42.5367 92.2058C40.7815 92.1631 39.0591 91.8748 37.4575 91.1058C35.1757 90.0164 33.7605 88.297 33.3436 85.8299C33.3107 85.6376 33.2778 85.4454 33.1023 85.3172V83.3948C33.2964 83.2958 33.3191 83.1135 33.3412 82.9372C33.3437 82.9169 33.3463 82.8967 33.349 82.8767C33.3508 82.8642 33.3526 82.8517 33.3546 82.8394C33.7495 80.5859 35.044 78.9412 37.0516 77.8198C38.6313 76.9334 40.3646 76.4741 42.1527 76.2178C44.7417 75.844 47.3417 75.812 49.9416 76.1858C50.4682 76.2605 50.5121 76.2285 50.4572 75.7052C50.3036 74.2527 49.6235 73.1633 48.2303 72.5439C47.572 72.2448 46.8699 72.0633 46.1459 72.0099C43.2936 71.8069 40.4962 72.0846 37.8305 73.1633C37.61 73.2561 37.396 73.3553 37.1832 73.4538L37.1824 73.4542C37.0037 73.537 36.8258 73.6194 36.6457 73.6973C36.4901 73.6132 36.5048 73.4892 36.518 73.3777C36.5215 73.3477 36.525 73.3186 36.525 73.2915L36.5216 73.1699C36.4789 71.6303 36.4364 70.1003 36.4043 68.5602C36.3934 68.0196 36.4042 68.0155 36.8976 67.8276L36.909 67.8233C39.0701 67.0116 41.319 66.563 43.6227 66.3708C45.3012 66.232 46.9796 66.1786 48.6691 66.3601C50.6218 66.5737 52.4977 67.0223 54.209 68.0155C56.6554 69.436 57.9938 71.5613 58.4874 74.242C58.63 74.9789 58.663 75.7265 58.663 76.4741V84.2172ZM41.5274 84.5162C41.8565 85.5308 42.6464 86.0862 43.6557 86.3211C47.7805 87.3037 50.3475 83.9715 50.4792 80.9491C50.4901 80.7141 50.4133 80.6073 50.15 80.5966C49.6356 80.5753 49.1238 80.5513 48.612 80.5274L48.6087 80.5272C48.0959 80.5032 47.583 80.4791 47.0674 80.4578C46.4092 80.4257 45.751 80.5005 45.1037 80.5859C44.2261 80.6927 43.3814 80.917 42.6464 81.419C41.6152 82.1132 41.1544 83.3734 41.5274 84.5162ZM82.3916 73.8148C82.0845 73.6653 81.7992 73.5265 81.4921 73.3983C79.5174 72.5439 77.455 72.2662 75.3377 72.7468C72.65 73.3663 70.829 75.4168 70.456 78.0762C70.2695 79.3898 70.3134 80.6821 70.8729 81.8996C71.926 84.1958 73.8348 85.4347 76.3251 85.8299C78.4094 86.1503 80.4279 85.8192 82.3806 85.0823C82.4716 85.0479 82.5625 85.0112 82.6513 84.9753C82.7553 84.9334 82.8564 84.8926 82.9511 84.858C83.0855 84.8929 83.0882 84.9634 83.0906 85.0289C83.091 85.0383 83.0913 85.0475 83.0921 85.0566C83.0925 85.0617 83.093 85.0667 83.0937 85.0716C83.1118 85.6852 83.1287 86.2975 83.1456 86.9095C83.1799 88.1511 83.2142 89.3911 83.2583 90.6359C83.2692 90.999 83.1486 91.1592 82.7866 91.266C81.4153 91.6612 80.022 91.9175 78.6069 92.0777C75.9192 92.3768 73.2644 92.2166 70.6754 91.4583C67.7354 90.5932 65.2671 89.0553 63.4899 86.5775C62.2612 84.858 61.614 82.9356 61.3726 80.8637C61.1423 78.7917 61.3287 76.7732 62.0089 74.8081C63.2376 71.305 65.7278 68.934 69.2054 67.535C71.8602 66.4669 74.6466 66.1359 77.5099 66.3281C79.2322 66.4456 80.8997 66.7446 82.4904 67.3961C83.0953 67.6441 83.0945 67.6522 83.0342 68.223L83.0279 68.2826C82.8633 69.8312 82.7098 71.3798 82.5562 72.9284C82.5524 72.9762 82.5496 73.0247 82.5468 73.0738C82.5331 73.3095 82.5187 73.5585 82.3916 73.8148ZM94.6136 71.0708C94.5673 71.1709 94.5138 71.2864 94.2943 71.305V67.4602C94.2943 66.8728 94.2944 66.8621 93.691 66.8621H86.9223C86.308 66.8621 86.297 66.8621 86.297 67.4495V91.0738C86.297 91.6184 86.308 91.6291 86.8785 91.6291H94.5028C95.073 91.6291 95.0732 91.6185 95.0842 91.0744L95.0842 80.9598C95.0842 80.0199 95.161 79.0908 95.3365 78.1616C95.545 77.0188 95.907 75.9295 96.631 74.9789C97.728 73.5478 99.5052 73.1847 100.975 73.4944C102.16 73.74 102.829 74.5731 103.224 75.6304C103.564 76.5382 103.641 77.4994 103.641 78.4606V90.8175C103.641 90.8673 103.642 90.9171 103.643 90.967C103.646 91.0666 103.648 91.1663 103.641 91.266C103.619 91.5544 103.773 91.6398 104.036 91.6185C104.109 91.6113 104.182 91.6137 104.255 91.6161C104.292 91.6173 104.328 91.6185 104.365 91.6185H112.121C112.34 91.6291 112.439 91.5223 112.428 91.3087C112.421 91.2091 112.423 91.1094 112.426 91.0097C112.427 90.9598 112.428 90.91 112.428 90.8602C112.428 89.8131 112.429 88.7673 112.431 87.7218C112.433 85.6321 112.435 83.5439 112.428 81.451C112.428 80.5326 112.45 79.6141 112.582 78.7063C112.735 77.6169 112.999 76.5703 113.547 75.5984C114.074 74.6799 114.798 73.9536 115.862 73.6332C118.264 72.9177 120.118 73.7187 120.733 76.1858C120.897 76.8586 120.974 77.5315 120.974 78.215V91.3408C120.974 91.5117 121.04 91.6185 121.237 91.6185H129.059C129.439 91.6185 129.615 91.6289 129.696 91.5487C129.778 91.467 129.761 91.291 129.761 90.9136C129.761 89.4963 129.76 88.0802 129.759 86.6645C129.756 83.8343 129.754 81.0056 129.761 78.1723C129.761 77.0188 129.728 75.8761 129.662 74.7226C129.608 73.6332 129.432 72.5546 129.125 71.5079C128.324 68.7311 126.47 67.0543 123.563 66.5096C122.049 66.232 120.524 66.1572 118.988 66.3815C116.739 66.7126 114.765 67.5883 113.152 69.201C112.747 69.6031 112.405 70.0537 112.064 70.5026C111.952 70.6498 111.84 70.7968 111.726 70.9419C111.58 70.8328 111.514 70.6909 111.451 70.5522C111.433 70.5143 111.416 70.4766 111.397 70.4399C110.475 68.6457 109.038 67.4388 107.108 66.7873C105.122 66.1145 103.103 66.1038 101.074 66.5096C98.2546 67.0757 96.0277 68.4961 94.6344 71.0273C94.6273 71.0412 94.6205 71.0558 94.6136 71.0708Z" fill="black"/>
<path d="M175.874 52.2015L182.529 34.4846H186.273L192.928 52.2015H189.393L187.937 48.1013H180.84L179.358 52.2015H175.874ZM181.75 45.5703H187.027L184.375 38.2051L181.75 45.5703Z" fill="black"/>
<path d="M200.524 52.5052C199.38 52.5052 198.375 52.328 197.508 51.9737C196.642 51.6025 195.949 51.0963 195.429 50.4551C194.909 49.8139 194.597 49.0715 194.493 48.2278H197.846C197.95 48.7172 198.228 49.139 198.678 49.4933C199.146 49.8308 199.744 49.9995 200.472 49.9995C201.2 49.9995 201.729 49.8561 202.058 49.5692C202.405 49.2824 202.578 48.9534 202.578 48.5822C202.578 48.0422 202.335 47.6795 201.85 47.4938C201.365 47.2914 200.689 47.0973 199.822 46.9117C199.268 46.7936 198.704 46.6502 198.132 46.4815C197.56 46.3127 197.032 46.1018 196.547 45.8487C196.079 45.5787 195.697 45.2413 195.403 44.8363C195.108 44.4145 194.961 43.8999 194.961 43.2924C194.961 42.1788 195.411 41.2423 196.313 40.483C197.231 39.7237 198.514 39.3441 200.16 39.3441C201.685 39.3441 202.899 39.69 203.8 40.3818C204.718 41.0736 205.264 42.0269 205.438 43.2418H202.292C202.101 42.3138 201.382 41.8498 200.134 41.8498C199.51 41.8498 199.025 41.9679 198.678 42.2041C198.349 42.4403 198.184 42.7356 198.184 43.0899C198.184 43.4612 198.436 43.7564 198.938 43.9758C199.441 44.1951 200.108 44.3976 200.94 44.5832C201.841 44.7857 202.665 45.0135 203.41 45.2666C204.173 45.5028 204.779 45.8656 205.23 46.3549C205.68 46.8274 205.906 47.5107 205.906 48.405C205.923 49.1812 205.715 49.8814 205.282 50.5057C204.848 51.13 204.225 51.6193 203.41 51.9737C202.595 52.328 201.633 52.5052 200.524 52.5052Z" fill="black"/>
<path d="M214.183 52.5052C213.039 52.5052 212.034 52.328 211.167 51.9737C210.301 51.6025 209.607 51.0963 209.088 50.4551C208.568 49.8139 208.256 49.0715 208.152 48.2278H211.505C211.609 48.7172 211.887 49.139 212.337 49.4933C212.805 49.8308 213.403 49.9995 214.131 49.9995C214.859 49.9995 215.388 49.8561 215.717 49.5692C216.064 49.2824 216.237 48.9534 216.237 48.5822C216.237 48.0422 215.994 47.6795 215.509 47.4938C215.024 47.2914 214.348 47.0973 213.481 46.9117C212.926 46.7936 212.363 46.6502 211.791 46.4815C211.219 46.3127 210.691 46.1018 210.205 45.8487C209.737 45.5787 209.356 45.2413 209.062 44.8363C208.767 44.4145 208.62 43.8999 208.62 43.2924C208.62 42.1788 209.07 41.2423 209.971 40.483C210.89 39.7237 212.173 39.3441 213.819 39.3441C215.344 39.3441 216.557 39.69 217.459 40.3818C218.377 41.0736 218.923 42.0269 219.097 43.2418H215.951C215.76 42.3138 215.041 41.8498 213.793 41.8498C213.169 41.8498 212.684 41.9679 212.337 42.2041C212.008 42.4403 211.843 42.7356 211.843 43.0899C211.843 43.4612 212.095 43.7564 212.597 43.9758C213.1 44.1951 213.767 44.3976 214.599 44.5832C215.5 44.7857 216.323 45.0135 217.069 45.2666C217.831 45.5028 218.438 45.8656 218.889 46.3549C219.339 46.8274 219.565 47.5107 219.565 48.405C219.582 49.1812 219.374 49.8814 218.941 50.5057C218.507 51.13 217.883 51.6193 217.069 51.9737C216.254 52.328 215.292 52.5052 214.183 52.5052Z" fill="black"/>
<path d="M228.7 52.5052C227.452 52.5052 226.325 52.2268 225.32 51.67C224.332 51.1131 223.544 50.3454 222.954 49.3668C222.382 48.3713 222.096 47.2239 222.096 45.9246C222.096 44.6254 222.391 43.4865 222.98 42.5078C223.57 41.5123 224.358 40.7361 225.346 40.1793C226.351 39.6225 227.478 39.3441 228.726 39.3441C229.956 39.3441 231.066 39.6225 232.053 40.1793C233.059 40.7361 233.847 41.5123 234.419 42.5078C235.009 43.4865 235.303 44.6254 235.303 45.9246C235.303 47.2239 235.009 48.3713 234.419 49.3668C233.847 50.3454 233.059 51.1131 232.053 51.67C231.048 52.2268 229.93 52.5052 228.7 52.5052ZM228.7 49.6958C229.566 49.6958 230.32 49.3836 230.962 48.7593C231.603 48.1182 231.924 47.1733 231.924 45.9246C231.924 44.676 231.603 43.7396 230.962 43.1152C230.32 42.4741 229.575 42.1535 228.726 42.1535C227.842 42.1535 227.079 42.4741 226.438 43.1152C225.814 43.7396 225.502 44.676 225.502 45.9246C225.502 47.1733 225.814 48.1182 226.438 48.7593C227.079 49.3836 227.833 49.6958 228.7 49.6958Z" fill="black"/>
<path d="M244.596 52.5052C243.279 52.5052 242.117 52.2268 241.112 51.67C240.107 51.1131 239.31 50.337 238.72 49.3415C238.148 48.3459 237.863 47.207 237.863 45.9246C237.863 44.6423 238.148 43.5033 238.72 42.5078C239.31 41.5123 240.107 40.7361 241.112 40.1793C242.117 39.6225 243.279 39.3441 244.596 39.3441C246.242 39.3441 247.629 39.7659 248.755 40.6096C249.882 41.4364 250.601 42.5837 250.913 44.0517H247.404C247.23 43.4443 246.884 42.9718 246.364 42.6344C245.861 42.28 245.263 42.1029 244.57 42.1029C243.651 42.1029 242.871 42.4403 242.23 43.1152C241.589 43.7902 241.268 44.7266 241.268 45.9246C241.268 47.1226 241.589 48.0591 242.23 48.734C242.871 49.409 243.651 49.7464 244.57 49.7464C245.263 49.7464 245.861 49.5777 246.364 49.2402C246.884 48.9028 247.23 48.4219 247.404 47.7976H250.913C250.601 49.2149 249.882 50.3539 248.755 51.2144C247.629 52.0749 246.242 52.5052 244.596 52.5052Z" fill="black"/>
<path d="M255.661 37.699C255.054 37.699 254.551 37.5218 254.153 37.1674C253.771 36.8131 253.581 36.366 253.581 35.826C253.581 35.2861 253.771 34.8474 254.153 34.5099C254.551 34.1556 255.054 33.9784 255.661 33.9784C256.267 33.9784 256.761 34.1556 257.143 34.5099C257.541 34.8474 257.74 35.2861 257.74 35.826C257.74 36.366 257.541 36.8131 257.143 37.1674C256.761 37.5218 256.267 37.699 255.661 37.699ZM253.997 52.2015V39.6478H257.324V52.2015H253.997Z" fill="black"/>
<path d="M265.243 52.5052C264.134 52.5052 263.224 52.3365 262.514 51.999C261.803 51.6447 261.274 51.1806 260.928 50.607C260.581 50.0333 260.408 49.4005 260.408 48.7087C260.408 47.5445 260.876 46.5996 261.812 45.874C262.748 45.1485 264.151 44.7857 266.023 44.7857H269.299V44.482C269.299 43.6214 269.048 42.9887 268.545 42.5837C268.042 42.1788 267.419 41.9763 266.673 41.9763C265.997 41.9763 265.408 42.1366 264.905 42.4572C264.403 42.7609 264.091 43.2165 263.97 43.8239H260.72C260.806 42.9128 261.118 42.1197 261.656 41.4448C262.21 40.7699 262.921 40.2552 263.788 39.9009C264.654 39.5297 265.625 39.3441 266.699 39.3441C268.536 39.3441 269.984 39.7912 271.041 40.6855C272.098 41.5798 272.627 42.8453 272.627 44.482V52.2015H269.793L269.481 50.1767C269.1 50.8516 268.562 51.4084 267.869 51.8471C267.193 52.2858 266.318 52.5052 265.243 52.5052ZM265.997 49.9742C266.951 49.9742 267.687 49.6705 268.207 49.0631C268.744 48.4556 269.082 47.7048 269.221 46.8105H266.387C265.503 46.8105 264.871 46.9708 264.489 47.2914C264.108 47.5951 263.918 47.9747 263.918 48.4303C263.918 48.9196 264.108 49.2993 264.489 49.5692C264.871 49.8392 265.373 49.9742 265.997 49.9742Z" fill="black"/>
<path d="M281.37 52.2015C280.018 52.2015 278.935 51.8809 278.12 51.2397C277.306 50.5985 276.898 49.4596 276.898 47.8229V42.356H274.689V39.6478H276.898L277.288 36.2816H280.226V39.6478H283.71V42.356H280.226V47.8482C280.226 48.4556 280.356 48.8774 280.616 49.1137C280.893 49.333 281.361 49.4427 282.02 49.4427H283.632V52.2015H281.37Z" fill="black"/>
<path d="M288.361 37.699C287.754 37.699 287.251 37.5218 286.853 37.1674C286.471 36.8131 286.281 36.366 286.281 35.826C286.281 35.2861 286.471 34.8474 286.853 34.5099C287.251 34.1556 287.754 33.9784 288.361 33.9784C288.967 33.9784 289.461 34.1556 289.842 34.5099C290.241 34.8474 290.44 35.2861 290.44 35.826C290.44 36.366 290.241 36.8131 289.842 37.1674C289.461 37.5218 288.967 37.699 288.361 37.699ZM286.697 52.2015V39.6478H290.024V52.2015H286.697Z" fill="black"/>
<path d="M299.685 52.5052C298.437 52.5052 297.311 52.2268 296.306 51.67C295.318 51.1131 294.529 50.3454 293.94 49.3668C293.368 48.3713 293.082 47.2239 293.082 45.9246C293.082 44.6254 293.376 43.4865 293.966 42.5078C294.555 41.5123 295.344 40.7361 296.332 40.1793C297.337 39.6225 298.463 39.3441 299.711 39.3441C300.942 39.3441 302.051 39.6225 303.039 40.1793C304.044 40.7361 304.833 41.5123 305.405 42.5078C305.994 43.4865 306.289 44.6254 306.289 45.9246C306.289 47.2239 305.994 48.3713 305.405 49.3668C304.833 50.3454 304.044 51.1131 303.039 51.67C302.034 52.2268 300.916 52.5052 299.685 52.5052ZM299.685 49.6958C300.552 49.6958 301.306 49.3836 301.947 48.7593C302.588 48.1182 302.909 47.1733 302.909 45.9246C302.909 44.676 302.588 43.7396 301.947 43.1152C301.306 42.4741 300.56 42.1535 299.711 42.1535C298.827 42.1535 298.065 42.4741 297.423 43.1152C296.799 43.7396 296.488 44.676 296.488 45.9246C296.488 47.1733 296.799 48.1182 297.423 48.7593C298.065 49.3836 298.819 49.6958 299.685 49.6958Z" fill="black"/>
<path d="M309.264 52.2015V39.6478H312.202L312.462 41.7738C312.86 41.0314 313.432 40.4408 314.177 40.0021C314.94 39.5634 315.833 39.3441 316.855 39.3441C318.45 39.3441 319.689 39.8334 320.573 40.8121C321.457 41.7907 321.899 43.2249 321.899 45.1147V52.2015H318.571V45.4184C318.571 44.3386 318.346 43.5118 317.895 42.9381C317.444 42.3644 316.742 42.0775 315.789 42.0775C314.853 42.0775 314.082 42.3981 313.475 43.0393C312.886 43.6805 312.592 44.5748 312.592 45.7222V52.2015H309.264Z" fill="black"/>
<path d="M331.873 52.2015V42.356H330.106V39.6478H331.873V38.1798C331.873 36.6612 332.263 35.5814 333.043 34.9402C333.841 34.299 334.915 33.9784 336.267 33.9784H337.697V36.7372H336.787C336.215 36.7372 335.808 36.8469 335.565 37.0662C335.322 37.2856 335.201 37.6568 335.201 38.1798V39.6478H337.983V42.356H335.201V52.2015H331.873Z" fill="black"/>
<path d="M346.298 52.5052C345.05 52.5052 343.923 52.2268 342.918 51.67C341.93 51.1131 341.142 50.3454 340.552 49.3668C339.981 48.3713 339.695 47.2239 339.695 45.9246C339.695 44.6254 339.989 43.4865 340.578 42.5078C341.168 41.5123 341.956 40.7361 342.944 40.1793C343.949 39.6225 345.076 39.3441 346.324 39.3441C347.554 39.3441 348.664 39.6225 349.652 40.1793C350.657 40.7361 351.445 41.5123 352.017 42.5078C352.607 43.4865 352.901 44.6254 352.901 45.9246C352.901 47.2239 352.607 48.3713 352.017 49.3668C351.445 50.3454 350.657 51.1131 349.652 51.67C348.646 52.2268 347.528 52.5052 346.298 52.5052ZM346.298 49.6958C347.164 49.6958 347.918 49.3836 348.56 48.7593C349.201 48.1182 349.522 47.1733 349.522 45.9246C349.522 44.676 349.201 43.7396 348.56 43.1152C347.918 42.4741 347.173 42.1535 346.324 42.1535C345.44 42.1535 344.677 42.4741 344.036 43.1152C343.412 43.7396 343.1 44.676 343.1 45.9246C343.1 47.1733 343.412 48.1182 344.036 48.7593C344.677 49.3836 345.431 49.6958 346.298 49.6958Z" fill="black"/>
<path d="M355.877 52.2015V39.6478H358.84L359.152 42.0016C359.62 41.1917 360.253 40.5505 361.05 40.0781C361.865 39.5888 362.818 39.3441 363.91 39.3441V42.7609H362.974C362.246 42.7609 361.596 42.8706 361.024 43.0899C360.452 43.3093 360.002 43.6889 359.672 44.2289C359.36 44.7688 359.204 45.5197 359.204 46.4815V52.2015H355.877Z" fill="black"/>
<path d="M185.285 85.7243C183.448 85.7243 181.871 85.3447 180.554 84.5854C179.236 83.8092 178.223 82.7377 177.512 81.371C176.801 79.9874 176.446 78.3929 176.446 76.5875C176.446 74.782 176.801 73.1875 177.512 71.8039C178.223 70.4203 179.236 69.3404 180.554 68.5643C181.871 67.7881 183.448 67.4 185.285 67.4C187.469 67.4 189.254 67.9315 190.641 68.9945C192.045 70.0407 192.92 71.5171 193.266 73.4237H189.601C189.375 72.462 188.89 71.7111 188.145 71.1712C187.417 70.6143 186.446 70.3359 185.233 70.3359C183.552 70.3359 182.235 70.8928 181.282 72.0064C180.328 73.12 179.852 74.647 179.852 76.5875C179.852 78.5279 180.328 80.0549 181.282 81.1685C182.235 82.2653 183.552 82.8137 185.233 82.8137C186.446 82.8137 187.417 82.5606 188.145 82.0544C188.89 81.5313 189.375 80.8142 189.601 79.9031H193.266C192.92 81.7254 192.045 83.1511 190.641 84.1804C189.254 85.2097 187.469 85.7243 185.285 85.7243Z" fill="black"/>
<path d="M202.321 85.7243C201.074 85.7243 199.947 85.4459 198.942 84.8891C197.954 84.3323 197.165 83.5645 196.576 82.5859C196.004 81.5904 195.718 80.443 195.718 79.1438C195.718 77.8445 196.013 76.7056 196.602 75.7269C197.191 74.7314 197.98 73.9552 198.968 73.3984C199.973 72.8416 201.1 72.5632 202.347 72.5632C203.578 72.5632 204.687 72.8416 205.675 73.3984C206.68 73.9552 207.469 74.7314 208.041 75.7269C208.63 76.7056 208.925 77.8445 208.925 79.1438C208.925 80.443 208.63 81.5904 208.041 82.5859C207.469 83.5645 206.68 84.3323 205.675 84.8891C204.67 85.4459 203.552 85.7243 202.321 85.7243ZM202.321 82.9149C203.188 82.9149 203.942 82.6028 204.583 81.9785C205.225 81.3373 205.545 80.3924 205.545 79.1438C205.545 77.8951 205.225 76.9587 204.583 76.3344C203.942 75.6932 203.197 75.3726 202.347 75.3726C201.464 75.3726 200.701 75.6932 200.06 76.3344C199.436 76.9587 199.124 77.8951 199.124 79.1438C199.124 80.3924 199.436 81.3373 200.06 81.9785C200.701 82.6028 201.455 82.9149 202.321 82.9149Z" fill="black"/>
<path d="M211.9 85.4206V72.8669H214.838L215.124 74.5627C215.54 73.9552 216.086 73.4744 216.762 73.12C217.455 72.7488 218.252 72.5632 219.153 72.5632C221.147 72.5632 222.559 73.3141 223.391 74.8158C223.859 74.124 224.483 73.5756 225.263 73.1706C226.06 72.7657 226.927 72.5632 227.863 72.5632C229.544 72.5632 230.835 73.0525 231.736 74.0312C232.637 75.0098 233.088 76.444 233.088 78.3338V85.4206H229.76V78.6376C229.76 77.5577 229.544 76.7309 229.11 76.1572C228.695 75.5835 228.045 75.2967 227.161 75.2967C226.259 75.2967 225.531 75.6173 224.977 76.2584C224.44 76.8996 224.171 77.7939 224.171 78.9413V85.4206H220.843V78.6376C220.843 77.5577 220.627 76.7309 220.193 76.1572C219.76 75.5835 219.093 75.2967 218.192 75.2967C217.308 75.2967 216.588 75.6173 216.034 76.2584C215.496 76.8996 215.228 77.7939 215.228 78.9413V85.4206H211.9Z" fill="black"/>
<path d="M236.247 90.9887V72.8669H239.211L239.575 74.6639C239.991 74.1071 240.537 73.6178 241.213 73.1959C241.906 72.7741 242.799 72.5632 243.891 72.5632C245.104 72.5632 246.187 72.8501 247.14 73.4237C248.094 73.9974 248.848 74.782 249.402 75.7775C249.957 76.7731 250.234 77.9036 250.234 79.1691C250.234 80.4346 249.957 81.5651 249.402 82.5606C248.848 83.5392 248.094 84.3154 247.14 84.8891C246.187 85.4459 245.104 85.7243 243.891 85.7243C242.92 85.7243 242.071 85.5471 241.343 85.1928C240.615 84.8385 240.026 84.3407 239.575 83.6995V90.9887H236.247ZM243.189 82.8896C244.246 82.8896 245.121 82.5437 245.814 81.8519C246.508 81.1601 246.854 80.2658 246.854 79.1691C246.854 78.0723 246.508 77.1696 245.814 76.4609C245.121 75.7522 244.246 75.3979 243.189 75.3979C242.114 75.3979 241.23 75.7522 240.537 76.4609C239.861 77.1527 239.523 78.047 239.523 79.1438C239.523 80.2405 239.861 81.1432 240.537 81.8519C241.23 82.5437 242.114 82.8896 243.189 82.8896Z" fill="black"/>
<path d="M258.042 85.7243C256.43 85.7243 255.183 85.235 254.299 84.2563C253.432 83.2777 252.999 81.8435 252.999 79.9537V72.8669H256.3V79.65C256.3 80.7298 256.526 81.5566 256.976 82.1303C257.427 82.704 258.138 82.9908 259.108 82.9908C260.027 82.9908 260.781 82.6702 261.37 82.0291C261.977 81.3879 262.28 80.4936 262.28 79.3462V72.8669H265.608V85.4206H262.67L262.41 83.2946C262.011 84.037 261.431 84.6275 260.668 85.0662C259.923 85.505 259.048 85.7243 258.042 85.7243Z" fill="black"/>
<path d="M274.769 85.4206C273.417 85.4206 272.334 85.1 271.519 84.4588C270.705 83.8176 270.297 82.6787 270.297 81.042V75.5751H268.088V72.8669H270.297L270.687 69.5007H273.625V72.8669H277.109V75.5751H273.625V81.0673C273.625 81.6747 273.755 82.0966 274.015 82.3328C274.292 82.5521 274.76 82.6618 275.419 82.6618H277.031V85.4206H274.769Z" fill="black"/>
<path d="M281.76 70.9181C281.153 70.9181 280.65 70.7409 280.252 70.3866C279.871 70.0322 279.68 69.5851 279.68 69.0451C279.68 68.5052 279.871 68.0665 280.252 67.729C280.65 67.3747 281.153 67.1975 281.76 67.1975C282.366 67.1975 282.86 67.3747 283.242 67.729C283.64 68.0665 283.84 68.5052 283.84 69.0451C283.84 69.5851 283.64 70.0322 283.242 70.3866C282.86 70.7409 282.366 70.9181 281.76 70.9181ZM280.096 85.4206V72.8669H283.424V85.4206H280.096Z" fill="black"/>
<path d="M286.897 85.4206V72.8669H289.835L290.095 74.993C290.493 74.2505 291.065 73.66 291.81 73.2213C292.573 72.7826 293.466 72.5632 294.488 72.5632C296.083 72.5632 297.322 73.0525 298.206 74.0312C299.09 75.0098 299.532 76.444 299.532 78.3338V85.4206H296.204V78.6376C296.204 77.5577 295.979 76.7309 295.528 76.1572C295.077 75.5835 294.375 75.2967 293.422 75.2967C292.486 75.2967 291.715 75.6173 291.108 76.2584C290.519 76.8996 290.225 77.7939 290.225 78.9413V85.4206H286.897Z" fill="black"/>
<path d="M308.173 81.6747C307.549 81.6747 306.969 81.6072 306.431 81.4723L305.469 82.4087C305.764 82.5606 306.163 82.6871 306.665 82.7884C307.168 82.8896 307.983 82.9908 309.109 83.0921C310.825 83.2439 312.073 83.6405 312.853 84.2816C313.633 84.9228 314.023 85.8087 314.023 86.9392C314.023 87.6816 313.815 88.3818 313.399 89.0399C312.983 89.7148 312.341 90.2548 311.475 90.6597C310.608 91.0815 309.499 91.2925 308.147 91.2925C306.31 91.2925 304.828 90.955 303.702 90.2801C302.575 89.622 302.012 88.6265 302.012 87.2935C302.012 86.163 302.575 85.1844 303.702 84.3576C303.355 84.2057 303.052 84.0454 302.792 83.8767C302.549 83.708 302.332 83.5308 302.142 83.3452V82.7631L304.404 80.4346C303.398 79.574 302.896 78.4688 302.896 77.119C302.896 76.2753 303.104 75.5076 303.52 74.8158C303.953 74.124 304.56 73.5756 305.339 73.1706C306.119 72.7657 307.064 72.5632 308.173 72.5632C308.901 72.5632 309.577 72.6644 310.201 72.8669H315.089V74.8411L312.879 74.993C313.225 75.6341 313.399 76.3428 313.399 77.119C313.399 77.9626 313.191 78.7304 312.775 79.4222C312.359 80.114 311.752 80.6623 310.955 81.0673C310.175 81.4723 309.248 81.6747 308.173 81.6747ZM308.173 79.1944C308.849 79.1944 309.404 79.0172 309.837 78.6629C310.288 78.3085 310.513 77.8023 310.513 77.1443C310.513 76.4862 310.288 75.98 309.837 75.6257C309.404 75.2714 308.849 75.0942 308.173 75.0942C307.463 75.0942 306.891 75.2714 306.457 75.6257C306.024 75.98 305.807 76.4862 305.807 77.1443C305.807 77.8023 306.024 78.3085 306.457 78.6629C306.891 79.0172 307.463 79.1944 308.173 79.1944ZM305.053 86.9645C305.053 87.5888 305.348 88.0528 305.937 88.3565C306.544 88.6771 307.281 88.8374 308.147 88.8374C308.979 88.8374 309.655 88.6687 310.175 88.3312C310.695 88.0106 310.955 87.5719 310.955 87.0151C310.955 86.5595 310.782 86.1799 310.435 85.8762C310.106 85.5724 309.438 85.3868 308.433 85.3193C307.723 85.2687 307.064 85.1928 306.457 85.0916C305.955 85.3615 305.591 85.6568 305.365 85.9774C305.157 86.298 305.053 86.627 305.053 86.9645Z" fill="black"/>
<path d="M323.788 85.4206V67.7037H327.739L333.537 78.9413L339.256 67.7037H343.208V85.4206H339.88V73.1959L334.811 82.8896H332.185L327.115 73.1959V85.4206H323.788Z" fill="black"/>
<path d="M351.106 85.7243C349.997 85.7243 349.087 85.5556 348.376 85.2181C347.666 84.8638 347.137 84.3998 346.791 83.8261C346.444 83.2524 346.271 82.6196 346.271 81.9278C346.271 80.7636 346.739 79.8187 347.675 79.0931C348.611 78.3676 350.014 78.0048 351.886 78.0048H355.162V77.7011C355.162 76.8406 354.911 76.2078 354.408 75.8029C353.905 75.3979 353.281 75.1954 352.536 75.1954C351.86 75.1954 351.271 75.3557 350.768 75.6763C350.266 75.98 349.954 76.4356 349.832 77.043H346.583C346.669 76.1319 346.981 75.3388 347.519 74.6639C348.073 73.989 348.784 73.4744 349.65 73.12C350.517 72.7488 351.488 72.5632 352.562 72.5632C354.399 72.5632 355.846 73.0103 356.904 73.9046C357.961 74.7989 358.49 76.0644 358.49 77.7011V85.4206H355.656L355.344 83.3958C354.963 84.0707 354.425 84.6275 353.732 85.0662C353.056 85.505 352.181 85.7243 351.106 85.7243ZM351.86 83.1933C352.813 83.1933 353.55 82.8896 354.07 82.2822C354.607 81.6747 354.945 80.9239 355.084 80.0296H352.25C351.366 80.0296 350.734 80.1899 350.352 80.5105C349.971 80.8142 349.78 81.1938 349.78 81.6494C349.78 82.1387 349.971 82.5184 350.352 82.7884C350.734 83.0583 351.236 83.1933 351.86 83.1933Z" fill="black"/>
<path d="M367.982 85.7243C366.665 85.7243 365.504 85.4459 364.499 84.8891C363.494 84.3323 362.696 83.5561 362.107 82.5606C361.535 81.5651 361.249 80.4261 361.249 79.1438C361.249 77.8614 361.535 76.7225 362.107 75.7269C362.696 74.7314 363.494 73.9552 364.499 73.3984C365.504 72.8416 366.665 72.5632 367.982 72.5632C369.629 72.5632 371.016 72.985 372.142 73.8287C373.269 74.6555 373.988 75.8029 374.3 77.2708H370.79C370.617 76.6634 370.27 76.1909 369.75 75.8535C369.248 75.4991 368.65 75.322 367.957 75.322C367.038 75.322 366.258 75.6594 365.617 76.3344C364.975 77.0093 364.655 77.9458 364.655 79.1438C364.655 80.3418 364.975 81.2782 365.617 81.9531C366.258 82.6281 367.038 82.9655 367.957 82.9655C368.65 82.9655 369.248 82.7968 369.75 82.4593C370.27 82.1219 370.617 81.641 370.79 81.0167H374.3C373.988 82.434 373.269 83.573 372.142 84.4335C371.016 85.294 369.629 85.7243 367.982 85.7243Z" fill="black"/>
<path d="M377.253 85.4206V67.1975H380.581V74.7905C381.014 74.0987 381.595 73.5587 382.323 73.1706C383.068 72.7657 383.917 72.5632 384.871 72.5632C386.465 72.5632 387.696 73.0525 388.562 74.0312C389.446 75.0098 389.888 76.444 389.888 78.3338V85.4206H386.587V78.6376C386.587 77.5577 386.361 76.7309 385.911 76.1572C385.477 75.5835 384.784 75.2967 383.831 75.2967C382.895 75.2967 382.115 75.6173 381.491 76.2584C380.884 76.8996 380.581 77.7939 380.581 78.9413V85.4206H377.253Z" fill="black"/>
<path d="M394.864 70.9181C394.258 70.9181 393.755 70.7409 393.356 70.3866C392.975 70.0322 392.784 69.5851 392.784 69.0451C392.784 68.5052 392.975 68.0665 393.356 67.729C393.755 67.3747 394.258 67.1975 394.864 67.1975C395.471 67.1975 395.965 67.3747 396.346 67.729C396.745 68.0665 396.944 68.5052 396.944 69.0451C396.944 69.5851 396.745 70.0322 396.346 70.3866C395.965 70.7409 395.471 70.9181 394.864 70.9181ZM393.2 85.4206V72.8669H396.528V85.4206H393.2Z" fill="black"/>
<path d="M400.001 85.4206V72.8669H402.939L403.199 74.993C403.598 74.2505 404.17 73.66 404.915 73.2213C405.677 72.7826 406.57 72.5632 407.593 72.5632C409.187 72.5632 410.426 73.0525 411.31 74.0312C412.194 75.0098 412.636 76.444 412.636 78.3338V85.4206H409.308V78.6376C409.308 77.5577 409.083 76.7309 408.632 76.1572C408.182 75.5835 407.48 75.2967 406.527 75.2967C405.591 75.2967 404.819 75.6173 404.213 76.2584C403.624 76.8996 403.329 77.7939 403.329 78.9413V85.4206H400.001Z" fill="black"/>
<path d="M422.084 85.7243C420.784 85.7243 419.631 85.4543 418.626 84.9144C417.621 84.3745 416.832 83.6152 416.26 82.6365C415.688 81.6579 415.402 80.5274 415.402 79.245C415.402 77.9458 415.679 76.7899 416.234 75.7775C416.806 74.7652 417.586 73.9806 418.574 73.4237C419.579 72.8501 420.758 72.5632 422.109 72.5632C423.375 72.5632 424.493 72.8332 425.463 73.3731C426.434 73.9131 427.188 74.6555 427.725 75.6004C428.28 76.5284 428.557 77.5661 428.557 78.7135C428.557 78.8991 428.548 79.0931 428.531 79.2956C428.531 79.4981 428.522 79.709 428.505 79.9284H418.704C418.773 80.907 419.12 81.6747 419.744 82.2316C420.385 82.7884 421.156 83.0668 422.058 83.0668C422.733 83.0668 423.297 82.9234 423.747 82.6365C424.215 82.3328 424.562 81.9447 424.787 81.4723H428.167C427.924 82.2653 427.517 82.9908 426.945 83.6489C426.39 84.2901 425.697 84.7963 424.865 85.1675C424.051 85.5387 423.123 85.7243 422.084 85.7243ZM422.109 75.1954C421.295 75.1954 420.576 75.4232 419.952 75.8788C419.328 76.3175 418.929 76.9924 418.756 77.9036H425.177C425.125 77.0768 424.813 76.4187 424.241 75.9294C423.669 75.4401 422.959 75.1954 422.109 75.1954Z" fill="black"/>
<path d="M431.356 85.4206V72.8669H434.319L434.631 75.2207C435.099 74.4108 435.732 73.7696 436.529 73.2972C437.344 72.8079 438.297 72.5632 439.389 72.5632V75.98H438.453C437.725 75.98 437.075 76.0897 436.503 76.3091C435.931 76.5284 435.481 76.9081 435.151 77.448C434.839 77.9879 434.683 78.7388 434.683 79.7006V85.4206H431.356Z" fill="black"/>
<path d="M443.275 90.9887L446.265 84.5854H445.485L440.467 72.8669H444.081L447.695 81.7L451.464 72.8669H455L446.811 90.9887H443.275Z" fill="black"/>
<path d="M180.833 124.967L175.705 111.68H177.479L181.789 123.278L186.137 111.68H187.872L182.744 124.967H180.833Z" fill="black"/>
<path d="M189.743 124.967V111.68H191.381V124.967H189.743Z" fill="black"/>
<path d="M197.473 124.967V112.989H193.398V111.68H203.186V112.989H199.11V124.967H197.473Z" fill="black"/>
<path d="M214.694 125.195C213.693 125.195 212.822 125.018 212.081 124.663C211.34 124.309 210.768 123.816 210.365 123.183C209.962 122.55 209.761 121.816 209.761 120.981H211.477C211.477 121.5 211.6 121.981 211.847 122.424C212.094 122.854 212.451 123.202 212.919 123.468C213.4 123.721 213.992 123.847 214.694 123.847C215.617 123.847 216.332 123.632 216.839 123.202C217.346 122.772 217.599 122.234 217.599 121.588C217.599 121.057 217.482 120.633 217.248 120.316C217.014 119.987 216.696 119.722 216.293 119.519C215.903 119.317 215.448 119.14 214.928 118.988C214.421 118.836 213.888 118.665 213.329 118.475C212.276 118.121 211.496 117.684 210.989 117.165C210.482 116.634 210.229 115.944 210.229 115.096C210.216 114.388 210.385 113.761 210.736 113.217C211.087 112.66 211.581 112.23 212.217 111.926C212.867 111.61 213.634 111.452 214.518 111.452C215.389 111.452 216.143 111.61 216.78 111.926C217.43 112.243 217.93 112.679 218.281 113.236C218.645 113.793 218.834 114.426 218.847 115.134H217.131C217.131 114.767 217.034 114.407 216.839 114.052C216.644 113.685 216.345 113.388 215.942 113.16C215.552 112.932 215.058 112.818 214.46 112.818C213.719 112.806 213.108 112.989 212.627 113.369C212.159 113.749 211.925 114.274 211.925 114.944C211.925 115.514 212.088 115.951 212.412 116.254C212.75 116.558 213.218 116.811 213.816 117.014C214.414 117.203 215.103 117.425 215.883 117.678C216.533 117.906 217.118 118.171 217.638 118.475C218.158 118.779 218.561 119.171 218.847 119.652C219.146 120.133 219.295 120.747 219.295 121.493C219.295 122.126 219.126 122.727 218.788 123.297C218.45 123.854 217.937 124.309 217.248 124.663C216.572 125.018 215.721 125.195 214.694 125.195Z" fill="black"/>
<path d="M225.342 124.967C224.458 124.967 223.763 124.758 223.256 124.341C222.749 123.923 222.495 123.17 222.495 122.082V116.9H220.819V115.552H222.495L222.71 113.293H224.133V115.552H226.98V116.9H224.133V122.082C224.133 122.677 224.257 123.082 224.504 123.297C224.751 123.499 225.186 123.6 225.81 123.6H226.824V124.967H225.342Z" fill="black"/>
<path d="M232.59 125.195C231.446 125.195 230.536 124.86 229.86 124.189C229.184 123.506 228.846 122.461 228.846 121.057V115.552H230.484V120.886C230.484 122.847 231.31 123.828 232.96 123.828C233.805 123.828 234.501 123.537 235.047 122.955C235.606 122.36 235.885 121.519 235.885 120.43V115.552H237.523V124.967H236.041L235.924 123.278C235.625 123.873 235.177 124.341 234.579 124.682C233.994 125.024 233.331 125.195 232.59 125.195Z" fill="black"/>
<path d="M244.606 125.195C243.644 125.195 242.799 124.98 242.071 124.55C241.356 124.119 240.797 123.531 240.394 122.784C240.004 122.038 239.809 121.19 239.809 120.241C239.809 119.291 240.011 118.45 240.414 117.716C240.817 116.969 241.376 116.387 242.091 115.97C242.806 115.539 243.651 115.324 244.626 115.324C245.418 115.324 246.12 115.482 246.731 115.799C247.342 116.115 247.817 116.558 248.155 117.127V111.3H249.793V124.967H248.311L248.155 123.411C247.843 123.866 247.394 124.277 246.809 124.644C246.224 125.011 245.49 125.195 244.606 125.195ZM244.782 123.809C245.431 123.809 246.003 123.664 246.497 123.373C247.004 123.069 247.394 122.651 247.667 122.12C247.953 121.588 248.096 120.968 248.096 120.26C248.096 119.551 247.953 118.931 247.667 118.399C247.394 117.868 247.004 117.456 246.497 117.165C246.003 116.862 245.431 116.71 244.782 116.71C244.145 116.71 243.573 116.862 243.066 117.165C242.572 117.456 242.182 117.868 241.896 118.399C241.623 118.931 241.486 119.551 241.486 120.26C241.486 120.968 241.623 121.588 241.896 122.12C242.182 122.651 242.572 123.069 243.066 123.373C243.573 123.664 244.145 123.809 244.782 123.809Z" fill="black"/>
<path d="M256.81 125.195C255.888 125.195 255.069 124.992 254.354 124.588C253.639 124.17 253.073 123.594 252.657 122.86C252.254 122.126 252.053 121.259 252.053 120.26C252.053 119.272 252.254 118.412 252.657 117.678C253.06 116.931 253.619 116.355 254.334 115.951C255.062 115.533 255.901 115.324 256.849 115.324C257.785 115.324 258.591 115.533 259.267 115.951C259.956 116.355 260.483 116.893 260.847 117.564C261.211 118.235 261.393 118.956 261.393 119.728C261.393 119.867 261.386 120.006 261.373 120.146C261.373 120.285 261.373 120.443 261.373 120.62H253.671C253.71 121.342 253.879 121.943 254.178 122.424C254.49 122.892 254.874 123.246 255.329 123.487C255.797 123.727 256.291 123.847 256.81 123.847C257.486 123.847 258.052 123.695 258.507 123.392C258.962 123.088 259.293 122.677 259.501 122.158H261.12C260.86 123.031 260.359 123.759 259.618 124.341C258.89 124.91 257.954 125.195 256.81 125.195ZM256.81 116.672C256.031 116.672 255.335 116.906 254.724 117.374C254.126 117.83 253.782 118.5 253.691 119.386H259.774C259.735 118.538 259.436 117.874 258.877 117.393C258.318 116.912 257.629 116.672 256.81 116.672Z" fill="black"/>
<path d="M263.563 124.967V115.552H265.045L265.143 117.241C265.455 116.647 265.903 116.178 266.488 115.837C267.073 115.495 267.736 115.324 268.477 115.324C269.621 115.324 270.531 115.666 271.207 116.349C271.896 117.02 272.24 118.058 272.24 119.462V124.967H270.602V119.633C270.602 117.672 269.77 116.691 268.106 116.691C267.275 116.691 266.579 116.988 266.02 117.583C265.474 118.165 265.201 119 265.201 120.089V124.967H263.563Z" fill="black"/>
<path d="M278.543 124.967C277.659 124.967 276.964 124.758 276.457 124.341C275.95 123.923 275.696 123.17 275.696 122.082V116.9H274.02V115.552H275.696L275.911 113.293H277.334V115.552H280.181V116.9H277.334V122.082C277.334 122.677 277.458 123.082 277.705 123.297C277.952 123.499 278.387 123.6 279.011 123.6H280.025V124.967H278.543Z" fill="black"/>
<path d="M293.505 125.195C292.167 125.195 291.01 124.91 290.035 124.341C289.073 123.759 288.325 122.955 287.792 121.93C287.259 120.892 286.993 119.69 286.993 118.323C286.993 116.969 287.259 115.78 287.792 114.755C288.325 113.717 289.073 112.907 290.035 112.325C291.01 111.743 292.167 111.452 293.505 111.452C295.065 111.452 296.333 111.819 297.307 112.553C298.295 113.274 298.926 114.286 299.199 115.59H297.385C297.178 114.767 296.749 114.109 296.099 113.616C295.462 113.11 294.597 112.856 293.505 112.856C292.53 112.856 291.679 113.078 290.951 113.521C290.223 113.951 289.658 114.577 289.255 115.4C288.865 116.21 288.67 117.184 288.67 118.323C288.67 119.462 288.865 120.443 289.255 121.266C289.658 122.076 290.223 122.702 290.951 123.145C291.679 123.575 292.53 123.79 293.505 123.79C294.597 123.79 295.462 123.55 296.099 123.069C296.749 122.575 297.178 121.924 297.385 121.114H299.199C298.926 122.392 298.295 123.392 297.307 124.113C296.333 124.834 295.065 125.195 293.505 125.195Z" fill="black"/>
<path d="M301.455 124.967V111.3H303.093V117.165C303.418 116.583 303.88 116.134 304.477 115.818C305.075 115.489 305.725 115.324 306.427 115.324C307.545 115.324 308.442 115.666 309.118 116.349C309.794 117.02 310.132 118.058 310.132 119.462V124.967H308.514V119.633C308.514 117.672 307.701 116.691 306.076 116.691C305.231 116.691 304.523 116.988 303.951 117.583C303.379 118.165 303.093 119 303.093 120.089V124.967H301.455Z" fill="black"/>
<path d="M315.831 125.195C315.025 125.195 314.355 125.062 313.822 124.796C313.289 124.531 312.893 124.176 312.633 123.733C312.373 123.29 312.243 122.809 312.243 122.291C312.243 121.329 312.62 120.589 313.374 120.07C314.128 119.551 315.155 119.291 316.455 119.291H319.067V119.178C319.067 118.355 318.846 117.735 318.404 117.317C317.962 116.887 317.371 116.672 316.63 116.672C315.993 116.672 315.441 116.83 314.973 117.146C314.518 117.45 314.232 117.899 314.115 118.494H312.438C312.503 117.811 312.737 117.235 313.14 116.767C313.556 116.299 314.069 115.944 314.68 115.704C315.291 115.451 315.941 115.324 316.63 115.324C317.982 115.324 318.996 115.678 319.672 116.387C320.361 117.083 320.705 118.013 320.705 119.178V124.967H319.243L319.145 123.278C318.872 123.809 318.469 124.265 317.936 124.644C317.416 125.011 316.714 125.195 315.831 125.195ZM316.084 123.847C316.708 123.847 317.241 123.689 317.683 123.373C318.138 123.056 318.482 122.645 318.716 122.139C318.95 121.633 319.067 121.101 319.067 120.544V120.525H316.591C315.629 120.525 314.947 120.69 314.544 121.019C314.154 121.335 313.959 121.734 313.959 122.215C313.959 122.708 314.141 123.107 314.505 123.411C314.882 123.702 315.408 123.847 316.084 123.847Z" fill="black"/>
<path d="M323.162 129.143V115.552H324.644L324.8 117.108C325.112 116.653 325.554 116.242 326.126 115.875C326.711 115.508 327.452 115.324 328.349 115.324C329.311 115.324 330.149 115.539 330.864 115.97C331.579 116.4 332.131 116.988 332.521 117.735C332.924 118.482 333.126 119.329 333.126 120.279C333.126 121.228 332.924 122.076 332.521 122.822C332.131 123.556 331.572 124.138 330.844 124.569C330.13 124.986 329.291 125.195 328.329 125.195C327.536 125.195 326.828 125.037 326.204 124.72C325.593 124.404 325.125 123.961 324.8 123.392V129.143H323.162ZM328.154 123.809C328.804 123.809 329.376 123.664 329.87 123.373C330.363 123.069 330.753 122.651 331.039 122.12C331.325 121.588 331.468 120.968 331.468 120.26C331.468 119.551 331.325 118.931 331.039 118.399C330.753 117.868 330.363 117.456 329.87 117.165C329.376 116.862 328.804 116.71 328.154 116.71C327.504 116.71 326.932 116.862 326.438 117.165C325.944 117.456 325.554 117.868 325.268 118.399C324.982 118.931 324.839 119.551 324.839 120.26C324.839 120.968 324.982 121.588 325.268 122.12C325.554 122.651 325.944 123.069 326.438 123.373C326.932 123.664 327.504 123.809 328.154 123.809Z" fill="black"/>
<path d="M338.846 124.967C337.963 124.967 337.267 124.758 336.76 124.341C336.253 123.923 336 123.17 336 122.082V116.9H334.323V115.552H336L336.214 113.293H337.638V115.552H340.484V116.9H337.638V122.082C337.638 122.677 337.761 123.082 338.008 123.297C338.255 123.499 338.69 123.6 339.314 123.6H340.328V124.967H338.846Z" fill="black"/>
<path d="M346.647 125.195C345.724 125.195 344.905 124.992 344.19 124.588C343.475 124.17 342.909 123.594 342.493 122.86C342.091 122.126 341.889 121.259 341.889 120.26C341.889 119.272 342.091 118.412 342.493 117.678C342.896 116.931 343.455 116.355 344.17 115.951C344.898 115.533 345.737 115.324 346.686 115.324C347.622 115.324 348.427 115.533 349.103 115.951C349.792 116.355 350.319 116.893 350.683 117.564C351.047 118.235 351.229 118.956 351.229 119.728C351.229 119.867 351.222 120.006 351.209 120.146C351.209 120.285 351.209 120.443 351.209 120.62H343.507C343.546 121.342 343.715 121.943 344.014 122.424C344.326 122.892 344.71 123.246 345.165 123.487C345.633 123.727 346.127 123.847 346.647 123.847C347.323 123.847 347.888 123.695 348.343 123.392C348.798 123.088 349.129 122.677 349.337 122.158H350.956C350.696 123.031 350.195 123.759 349.454 124.341C348.726 124.91 347.79 125.195 346.647 125.195ZM346.647 116.672C345.867 116.672 345.171 116.906 344.56 117.374C343.962 117.83 343.618 118.5 343.527 119.386H349.61C349.571 118.538 349.272 117.874 348.713 117.393C348.154 116.912 347.466 116.672 346.647 116.672Z" fill="black"/>
<path d="M353.4 124.967V115.552H354.881L355.018 117.355C355.317 116.735 355.772 116.242 356.383 115.875C356.994 115.508 357.748 115.324 358.645 115.324V116.995H358.196C357.624 116.995 357.098 117.096 356.617 117.298C356.136 117.488 355.752 117.817 355.466 118.285C355.18 118.754 355.037 119.399 355.037 120.222V124.967H353.4Z" fill="black"/>
</svg>
