<?xml version="1.0" standalone="no"?>
<!DOCTYPE svg PUBLIC "-//W3C//DTD SVG 20010904//EN"
 "http://www.w3.org/TR/2001/REC-SVG-20010904/DTD/svg10.dtd">
<svg version="1.0" xmlns="http://www.w3.org/2000/svg"
 width="200.000000pt" height="200.000000pt" viewBox="0 0 200.000000 200.000000"
 preserveAspectRatio="xMidYMid meet">

<g transform="translate(0.000000,200.000000) scale(0.100000,-0.100000)"
fill="#FFFFFF" stroke="none">
<path d="M970 1975 c-7 -8 -36 -26 -65 -40 -36 -18 -57 -36 -65 -55 l-12 -29
-27 19 c-14 11 -50 22 -79 25 -29 3 -65 10 -78 16 -33 12 -34 12 -34 -5 0 -7
-20 -40 -45 -72 -28 -36 -45 -68 -45 -85 0 -26 -1 -27 -29 -16 -23 8 -42 7
-88 -6 -32 -9 -69 -18 -82 -19 -21 -3 -26 -11 -38 -63 -23 -101 -25 -122 -14
-144 11 -19 9 -21 -23 -21 -25 0 -46 -10 -78 -36 -23 -20 -53 -41 -66 -47 -17
-8 -22 -16 -17 -31 3 -12 9 -41 11 -66 8 -73 13 -89 34 -110 20 -20 20 -20 -2
-29 -28 -11 -53 -39 -63 -69 -4 -13 -20 -39 -37 -58 l-30 -34 30 -34 c17 -19
33 -45 37 -58 9 -29 44 -68 62 -68 18 0 16 -10 -4 -32 -15 -17 -22 -48 -35
-164 -4 -30 122 -124 164 -124 26 0 28 -2 17 -21 -11 -22 -9 -43 14 -144 l14
-60 45 -6 c25 -4 55 -12 66 -18 26 -14 68 -14 94 0 19 10 20 9 14 -14 -4 -17
1 -34 19 -58 14 -19 37 -53 52 -77 22 -33 32 -41 48 -36 11 3 40 8 65 10 72 8
89 13 109 33 19 19 20 19 31 -9 8 -19 30 -38 66 -56 30 -15 59 -33 65 -41 16
-18 44 -16 60 4 8 9 33 25 57 35 23 11 50 31 59 46 9 15 18 29 20 31 2 2 12
-4 23 -14 12 -11 45 -22 78 -26 31 -4 69 -10 84 -14 23 -6 29 -3 44 27 9 18
32 50 51 72 27 30 34 45 31 68 -4 23 -2 28 11 22 34 -14 62 -16 90 -5 15 7 50
15 77 19 43 6 49 10 52 32 1 14 9 52 18 85 11 45 12 68 5 88 -10 26 -9 27 23
27 18 0 39 7 46 15 6 8 36 30 65 50 l53 35 -14 46 c-8 26 -14 64 -14 84 0 24
-7 43 -20 55 -20 19 -20 19 9 31 19 8 38 29 52 56 12 24 32 57 45 74 21 29 22
33 8 45 -9 7 -29 39 -45 70 -22 45 -36 60 -63 70 l-33 12 24 21 c20 17 26 35
33 91 4 39 11 78 15 87 5 12 -1 21 -23 32 -16 8 -48 31 -72 51 -35 29 -51 36
-76 33 -29 -3 -31 -2 -22 15 10 19 7 62 -9 147 -12 61 -19 70 -52 70 -15 0
-49 7 -74 16 -36 12 -54 13 -77 5 -29 -10 -30 -9 -30 19 0 18 -13 44 -36 71
-19 23 -42 55 -50 71 -12 23 -19 28 -37 22 -43 -14 -91 -23 -99 -18 -11 7 -78
-23 -78 -35 0 -6 -4 -11 -10 -11 -5 0 -10 8 -10 18 0 19 -39 62 -57 62 -5 0
-30 13 -54 30 -50 34 -62 36 -79 15z m77 -50 c74 -48 83 -56 83 -77 0 -27 -28
-58 -52 -58 -10 0 -32 7 -48 15 -26 14 -33 13 -64 -1 -42 -20 -84 -12 -95 19
-13 34 2 59 50 85 24 13 48 27 53 32 15 15 32 12 73 -15z m386 -134 c26 -21
22 -68 -8 -87 -21 -14 -30 -14 -54 -5 -15 7 -34 23 -41 36 -10 19 -18 23 -41
18 -16 -3 -42 0 -59 7 -72 30 -36 109 49 111 25 0 55 4 66 8 16 6 24 0 46 -33
14 -23 33 -47 42 -55z m-655 63 c54 -34 8 -114 -58 -101 -24 5 -35 1 -59 -24
-41 -40 -91 -38 -105 4 -7 18 -7 33 -1 41 6 7 25 33 44 59 l34 46 61 -6 c34
-3 71 -12 84 -19z m102 -84 c6 0 10 -4 10 -8 0 -4 -22 -13 -49 -18 l-49 -10
19 24 c10 14 19 32 19 40 0 12 5 11 20 -6 12 -12 25 -22 30 -22z m290 9 c0 -6
10 -19 21 -28 21 -17 20 -17 -35 -7 l-56 10 28 22 c27 22 42 23 42 3z m-140
-9 c11 -7 3 -10 -30 -10 -33 0 -41 3 -30 10 8 5 22 10 30 10 8 0 22 -5 30 -10z
m-290 -48 c0 -5 -16 -13 -35 -19 -32 -10 -34 -10 -24 8 9 19 59 27 59 11z
m484 -26 c317 -108 523 -410 502 -736 -7 -106 -27 -185 -70 -275 -182 -384
-661 -530 -1031 -313 -83 49 -206 170 -254 251 -18 31 -47 96 -65 144 -29 84
-31 95 -30 238 0 144 2 153 33 238 92 246 282 413 536 473 98 23 282 13 379
-20z m95 13 c12 -20 11 -21 -6 -14 -10 4 -26 10 -36 13 -15 4 -16 7 -5 13 21
14 32 11 47 -12z m-831 -15 c42 -29 26 -79 -34 -105 -28 -12 -44 -25 -44 -36
0 -22 -29 -58 -52 -66 -21 -7 -68 29 -68 53 0 9 7 34 15 53 8 20 15 48 15 62
0 21 5 25 28 25 15 1 41 7 57 15 40 18 56 18 83 -1z m1140 -5 c44 -10 52 -15
52 -34 0 -12 7 -42 15 -65 18 -51 13 -75 -21 -97 -24 -15 -27 -15 -52 4 -15
11 -31 34 -36 51 -7 21 -18 33 -35 37 -34 8 -71 44 -71 67 0 10 9 27 21 39 22
22 22 22 127 -2z m-1032 -18 l32 -6 -44 -27 -43 -27 2 39 c1 23 5 36 11 32 6
-3 25 -8 42 -11z m861 -27 l2 -35 -27 17 c-52 33 -69 47 -50 41 10 -4 28 -2
40 3 33 13 33 13 35 -26z m-967 -77 c0 -2 -11 -14 -25 -27 -25 -23 -25 -23
-25 -2 0 11 8 23 18 25 24 7 32 7 32 4z m1052 -9 c8 -7 18 -22 22 -33 6 -16 1
-14 -23 9 -17 17 -31 31 -31 33 0 7 17 2 32 -9z m109 -100 c30 1 36 -7 20 -23
-5 -6 -11 -20 -13 -31 -2 -18 -7 -15 -30 23 -16 24 -23 41 -17 37 7 -4 25 -7
40 -6z m-1283 -33 c-19 -28 -24 -31 -30 -17 -15 37 -12 41 45 51 4 0 -3 -15
-15 -34z m-80 13 c22 -22 14 -68 -18 -98 -25 -23 -29 -33 -24 -59 9 -43 -17
-81 -56 -81 -39 0 -56 29 -63 107 -5 62 -5 63 27 82 18 11 41 29 51 41 20 22
64 27 83 8z m1526 -27 c25 -21 50 -41 55 -42 7 -3 8 -27 3 -73 -9 -70 -32
-106 -68 -106 -30 0 -56 40 -53 80 3 32 -2 45 -25 69 -33 34 -37 78 -10 98 29
21 50 16 98 -26z m-1517 -113 c-8 -24 -12 -28 -15 -15 -2 10 2 24 8 32 19 22
20 18 7 -17z m1423 -14 c0 -32 -6 -30 -18 5 -9 25 -8 29 4 24 8 -3 14 -16 14
-29z m-1466 -138 l-7 -48 -23 29 -22 28 26 22 c15 11 28 20 30 19 1 -2 -1 -24
-4 -50z m1506 29 c7 -8 19 -15 28 -15 13 0 13 -2 -1 -18 -9 -9 -20 -28 -24
-40 -7 -19 -10 -14 -19 33 -10 56 -6 67 16 40z m-1566 -61 c20 -19 20 -35 2
-79 -13 -31 -13 -39 0 -71 19 -46 11 -82 -20 -90 -40 -10 -64 5 -86 49 -11 23
-25 50 -32 60 -10 14 -10 20 0 35 7 9 21 36 32 59 11 23 26 44 33 46 25 11 56
7 71 -9z m1691 -9 c14 -13 25 -30 25 -37 0 -7 11 -26 23 -42 l23 -29 -35 -59
c-41 -69 -63 -85 -97 -69 -32 14 -39 51 -19 91 15 29 15 35 1 65 -21 44 -20
61 4 85 26 26 46 25 75 -5z m-1645 -107 c0 -41 -1 -42 -15 -21 -13 18 -13 26
-3 43 7 11 14 20 15 20 2 0 3 -19 3 -42z m1538 -23 c-17 -32 -18 -31 -18 21 1
47 1 48 14 24 11 -18 11 -30 4 -45z m3 -121 c6 -8 10 -15 8 -17 -27 -15 -49
-27 -52 -27 -1 0 2 25 7 56 9 48 12 52 18 29 3 -14 12 -33 19 -41z m-1527 -1
l6 -42 -29 16 -29 17 21 28 c11 15 21 27 22 25 1 -1 5 -21 9 -44z m-23 -60 c8
-9 14 -37 14 -62 0 -36 5 -50 23 -65 35 -28 46 -64 27 -92 -23 -35 -63 -31
-111 11 -21 19 -47 38 -57 41 -11 4 -16 12 -13 21 3 8 9 40 12 71 4 32 14 65
22 75 19 22 65 22 83 0z m1614 -8 c19 -18 25 -36 27 -75 1 -27 2 -56 2 -64 1
-14 -85 -87 -118 -99 -11 -5 -28 -1 -42 8 -34 22 -32 64 6 100 24 23 30 37 30
72 0 30 6 49 20 63 26 26 46 25 75 -5z m-136 -101 c-18 -22 -21 -11 -7 27 11
30 13 31 16 11 2 -13 -2 -30 -9 -38z m-1410 14 c11 -31 11 -31 -9 -13 -21 19
-27 45 -11 45 5 0 14 -14 20 -32z m64 -116 l25 -38 -34 0 c-29 1 -33 4 -27 21
3 11 6 28 5 38 -1 24 2 22 31 -21z m1281 -33 c-13 -4 -28 -10 -34 -14 -7 -4 1
12 17 36 l28 43 5 -30 c5 -24 1 -30 -16 -35z m-1267 -44 c12 -8 27 -31 33 -49
8 -27 20 -38 46 -46 19 -7 42 -23 51 -36 33 -52 -24 -99 -91 -76 -17 6 -45 13
-62 17 -27 5 -32 12 -43 53 -24 89 -24 112 -6 132 22 24 43 25 72 5z m1313 -5
c24 -24 25 -45 5 -93 -8 -20 -15 -47 -15 -60 0 -21 -7 -26 -52 -36 -105 -24
-108 -24 -128 -6 -40 36 -18 83 48 106 20 7 32 18 32 29 0 26 48 80 71 80 10
0 28 -9 39 -20z m-1221 -44 c23 -25 23 -25 2 -19 -12 3 -26 14 -32 24 -14 27
3 24 30 -5z m1088 1 c-3 -8 -15 -17 -27 -20 l-22 -6 23 25 c23 25 35 25 26 1z
m-982 -88 c20 -12 35 -23 33 -24 -2 -1 -18 -7 -37 -13 -30 -11 -33 -10 -28 7
2 10 0 26 -5 35 -12 21 -6 20 37 -5z m878 -16 c-5 -28 -7 -30 -31 -24 -15 5
-34 6 -42 3 -8 -3 -12 -1 -8 3 9 9 82 54 84 52 1 -1 -1 -16 -3 -34z m-799 -76
c26 -28 37 -33 66 -29 40 4 90 -27 90 -57 0 -31 -38 -61 -78 -61 -20 0 -52 -4
-70 -9 -26 -8 -34 -7 -42 8 -5 10 -25 37 -45 60 -40 49 -44 72 -15 101 29 29
58 25 94 -13z m84 8 c1 -1 -6 -5 -17 -8 -12 -3 -27 3 -37 14 -17 19 -16 19 17
8 19 -7 35 -13 37 -14z m572 5 c-12 -22 -18 -24 -39 -11 -12 7 6 19 47 30 1 1
-2 -8 -8 -19z m120 0 c27 -27 25 -62 -4 -89 -13 -12 -32 -38 -42 -56 -15 -28
-23 -34 -39 -28 -11 3 -44 9 -74 12 -43 5 -58 11 -73 32 -17 22 -18 30 -8 48
14 28 55 44 91 36 21 -5 31 -1 43 17 17 24 53 47 74 48 6 0 21 -9 32 -20z
m-546 -40 c21 -1 21 -1 1 -15 -11 -8 -25 -19 -31 -24 -8 -6 -19 0 -34 21 l-23
31 33 -6 c18 -4 42 -7 54 -7z m290 -12 c-10 -13 -20 -24 -21 -26 0 -2 -14 5
-29 15 l-28 18 34 6 c63 11 65 11 44 -13z m-151 -10 c-17 -8 -29 -8 -45 0 -20
9 -18 11 22 11 40 0 42 -2 23 -11z m-52 -33 c27 -14 32 -14 51 0 31 21 81 19
103 -5 24 -27 12 -67 -27 -88 -16 -9 -45 -27 -64 -39 l-33 -22 -56 34 c-76 45
-85 54 -85 81 0 50 53 68 111 39z"/>
<path d="M904 1705 c-4 -8 -4 -21 -1 -29 4 -9 -1 -17 -11 -19 -15 -4 -15 -5 0
-6 12 -1 18 -15 23 -52 8 -59 21 -57 16 3 -3 47 8 58 61 58 34 0 37 -2 36 -30
-1 -31 -24 -48 -42 -30 -8 8 -5 16 9 27 l20 15 -20 -4 c-14 -2 -20 -11 -20
-28 0 -20 6 -26 28 -28 15 -2 27 -8 27 -13 0 -5 5 -9 11 -9 5 0 9 8 8 18 -1 9
-1 32 0 49 1 31 2 32 34 26 39 -7 60 -23 30 -23 -19 0 -22 -5 -20 -36 3 -37
20 -56 45 -47 8 3 18 0 22 -7 5 -7 12 7 19 38 11 42 16 49 32 45 23 -6 23 -12
3 -63 -23 -57 -10 -62 15 -6 11 25 26 46 33 46 8 1 6 6 -6 15 -29 22 -187 55
-265 55 -63 0 -72 2 -69 17 2 9 14 20 28 24 23 6 22 7 -8 8 -20 1 -35 -5 -38
-14z m266 -86 c0 -32 -19 -59 -40 -59 -25 0 -26 17 -2 23 14 4 14 6 -5 12 -31
10 -29 27 2 19 19 -5 25 -2 25 10 0 9 5 16 10 16 6 0 10 -9 10 -21z"/>
<path d="M716 1604 c-42 -22 -52 -24 -76 -14 -36 15 -70 5 -70 -21 0 -10 4
-19 9 -19 5 0 8 8 7 17 -1 21 30 29 49 13 13 -10 7 -17 -31 -42 -25 -17 -68
-57 -96 -88 -55 -63 -116 -160 -100 -160 6 0 12 5 14 11 2 5 11 7 20 4 28 -11
9 -35 -27 -35 -21 0 -35 -6 -39 -17 -10 -24 15 -35 36 -16 17 15 18 15 18 -1
0 -11 6 -16 18 -14 13 3 16 12 14 37 -3 28 -1 33 12 27 9 -3 23 -9 31 -12 8
-3 15 -2 15 3 0 6 -18 18 -40 28 -39 18 -51 37 -30 50 6 4 27 -5 46 -20 19
-15 39 -25 45 -23 6 2 -7 17 -30 32 -46 32 -46 33 -26 60 17 22 38 12 30 -15
-6 -17 -2 -19 32 -18 23 1 29 3 16 6 -13 2 -23 9 -23 15 0 6 -7 19 -15 28 -13
15 -10 21 29 59 28 28 49 41 57 36 9 -6 4 -15 -17 -31 -27 -22 -28 -25 -12
-40 15 -15 16 -15 15 1 -1 9 6 22 16 29 15 9 21 7 37 -14 11 -14 20 -19 20
-12 0 7 -12 29 -26 47 -14 19 -23 39 -19 45 13 21 32 9 50 -30 10 -22 22 -40
27 -40 12 0 10 6 -13 51 -20 39 -20 41 -2 54 21 15 33 3 26 -26 -7 -24 18 -34
46 -20 13 7 22 8 26 1 3 -5 11 -10 16 -10 5 0 0 18 -11 41 -12 23 -19 47 -16
55 7 19 -1 17 -58 -12z m43 -22 c11 -20 3 -39 -18 -44 -8 -2 -14 8 -16 30 -3
36 18 45 34 14z m-349 -330 c0 -13 -12 -22 -22 -16 -10 6 -1 24 13 24 5 0 9
-4 9 -8z"/>
<path d="M1370 1531 c0 -12 5 -21 10 -21 6 0 10 -5 10 -11 0 -6 -9 -8 -21 -4
-17 6 -20 3 -17 -17 2 -17 8 -22 25 -20 29 4 41 -18 18 -34 -10 -8 -15 -17
-12 -21 4 -4 22 8 40 25 18 18 36 32 39 32 4 0 19 -16 34 -35 22 -29 24 -38
14 -50 -16 -19 -46 -19 -53 0 -8 20 11 29 28 15 9 -7 15 -8 15 -2 0 5 -6 15
-14 21 -11 9 -18 8 -30 -4 -20 -20 -20 -30 -2 -48 11 -11 12 -17 4 -25 -26
-26 2 -20 37 8 21 17 41 27 45 23 20 -24 49 -81 43 -86 -12 -13 -23 -7 -35 18
-12 27 -38 34 -38 10 0 -8 6 -15 14 -15 25 0 27 -31 4 -51 -31 -25 -14 -24 34
3 33 19 40 20 48 8 6 -8 10 -11 10 -6 0 27 -120 207 -169 250 -22 20 -30 9 -9
-12 9 -9 7 -13 -6 -18 -23 -9 -31 2 -31 44 0 27 -5 37 -17 40 -13 2 -18 -3
-18 -17z m25 -1 c3 -5 1 -10 -4 -10 -6 0 -11 5 -11 10 0 6 2 10 4 10 3 0 8 -4
11 -10z"/>
<path d="M967 1476 c-8 -19 -33 -47 -54 -62 -131 -96 -176 -191 -143 -303 5
-19 7 -37 5 -40 -3 -2 -21 10 -40 29 -28 28 -37 31 -49 21 -11 -9 -14 -24 -10
-46 3 -23 -2 -47 -16 -76 -12 -23 -34 -83 -49 -133 -15 -50 -31 -101 -35 -113
l-7 -23 441 0 c362 0 441 2 437 13 -15 40 -57 180 -57 191 0 8 -12 34 -26 60
-20 35 -25 55 -20 80 5 24 2 37 -9 46 -13 11 -21 8 -50 -20 -19 -19 -37 -32
-39 -29 -2 2 1 28 6 57 22 109 -17 191 -129 274 -32 23 -61 54 -69 74 -11 27
-20 34 -42 34 -22 0 -32 -7 -45 -34z m73 -16 c7 -17 39 -49 75 -74 89 -64 125
-123 125 -205 0 -25 -4 -60 -8 -76 -18 -61 8 -72 58 -25 18 17 34 30 37 30 3
0 3 -15 0 -32 -2 -18 2 -48 9 -67 8 -19 13 -35 12 -37 -5 -4 -43 -6 -102 -5
l-58 1 5 68 c4 37 9 93 13 124 6 51 3 62 -20 103 -15 25 -46 58 -68 73 -35 23
-52 27 -109 27 -59 0 -73 -4 -110 -30 -61 -43 -92 -106 -85 -170 4 -27 9 -82
12 -121 l6 -72 -43 -3 c-24 -2 -61 -3 -82 -1 -32 3 -37 6 -31 20 4 9 10 41 12
70 2 28 7 52 10 52 3 0 21 -14 38 -31 38 -37 71 -34 59 4 -4 12 -9 50 -12 84
-7 88 26 148 124 220 45 33 75 63 79 78 9 35 39 32 54 -5z m75 -144 c20 -16
46 -42 56 -60 21 -32 21 -64 3 -203 -3 -29 -4 -63 0 -77 6 -25 8 -26 96 -26
78 0 91 -2 100 -19 5 -11 10 -22 10 -25 0 -3 -166 -6 -370 -6 l-369 0 8 23 c8
20 15 22 100 25 116 4 113 -5 85 204 -8 59 -1 88 32 128 64 76 175 92 249 36z
m288 -496 c10 -33 17 -63 17 -67 0 -9 -809 -7 -818 2 -3 3 3 32 13 65 l18 60
377 0 377 0 16 -60z"/>
<path d="M1000 1415 c0 -8 5 -15 10 -15 6 0 10 7 10 15 0 8 -4 15 -10 15 -5 0
-10 -7 -10 -15z"/>
<path d="M770 1000 c0 -15 5 -20 18 -18 9 2 17 10 17 18 0 8 -8 16 -17 18 -13
2 -18 -3 -18 -18z"/>
<path d="M1220 1000 c0 -11 7 -20 15 -20 8 0 15 9 15 20 0 11 -7 20 -15 20 -8
0 -15 -9 -15 -20z"/>
<path d="M952 1313 c-13 -3 -38 -20 -57 -39 -47 -47 -53 -89 -26 -181 11 -40
21 -81 21 -92 0 -33 15 -31 43 4 48 60 133 54 168 -12 16 -30 29 -29 29 3 0
14 10 57 21 96 33 108 15 169 -61 208 -37 19 -84 23 -138 13z m74 -67 c8 -32
2 -69 -13 -73 -16 -6 -26 31 -18 67 8 36 22 39 31 6z m-84 -76 c-13 -11 -21
-24 -17 -30 8 -13 162 -13 170 -1 3 6 -5 19 -17 30 -12 12 -17 21 -11 21 18 0
44 -31 41 -49 -5 -24 -185 -30 -194 -6 -7 17 22 55 40 55 6 -1 1 -9 -12 -20z"/>
<path d="M967 1012 c-34 -38 -5 -102 46 -102 23 0 57 27 57 46 0 4 -7 -2 -16
-14 -28 -40 -94 -17 -94 33 0 10 7 27 17 37 9 10 14 18 11 18 -3 0 -12 -8 -21
-18z"/>
<path d="M1036 1017 c3 -8 0 -18 -7 -23 -8 -4 -15 -2 -17 6 -3 9 -9 5 -17 -11
-11 -20 -10 -26 8 -41 22 -20 31 -23 22 -9 -3 5 -1 12 4 16 6 3 7 13 4 22 -4
9 -2 14 3 10 6 -3 10 3 11 13 1 11 -2 22 -8 25 -5 3 -6 0 -3 -8z"/>
<path d="M1074 856 c-3 -8 -4 -25 -2 -38 3 -17 5 -13 9 15 5 38 2 47 -7 23z"/>
<path d="M794 827 c-8 -9 -7 -16 3 -25 11 -11 13 -8 13 13 0 28 -1 29 -16 12z"/>
<path d="M900 829 c0 -5 5 -7 10 -4 6 3 10 8 10 11 0 2 -4 4 -10 4 -5 0 -10
-5 -10 -11z"/>
<path d="M1002 820 c0 -14 2 -19 5 -12 2 6 2 18 0 25 -3 6 -5 1 -5 -13z"/>
<path d="M1117 820 c-3 -11 -1 -23 4 -26 5 -3 9 6 9 20 0 31 -6 34 -13 6z"/>
<path d="M1150 829 c-12 -8 -10 -9 7 -4 15 4 23 1 26 -12 4 -14 5 -13 6 5 1
24 -15 28 -39 11z"/>
<path d="M1202 815 c0 -16 2 -22 5 -12 2 9 2 23 0 30 -3 6 -5 -1 -5 -18z"/>
<path d="M828 813 c6 -2 18 -2 25 0 6 3 1 5 -13 5 -14 0 -19 -2 -12 -5z"/>
<path d="M618 1423 c7 -3 16 -2 19 1 4 3 -2 6 -13 5 -11 0 -14 -3 -6 -6z"/>
<path d="M330 1076 c0 -30 3 -35 28 -38 16 -2 27 -9 27 -18 0 -9 -11 -16 -27
-18 -40 -5 -34 -22 7 -22 21 0 35 5 36 13 1 6 2 19 3 27 2 27 31 16 34 -12 5
-42 23 -33 19 10 -2 32 -6 37 -27 37 -15 0 -26 7 -28 18 -3 13 4 17 27 17 17
0 31 5 31 10 0 6 -15 10 -34 10 -29 0 -34 -4 -40 -31 -7 -37 -30 -34 -34 4 -5
39 -22 33 -22 -7z"/>
<path d="M1540 1075 c0 -31 3 -35 25 -35 18 0 25 -5 25 -20 0 -15 -7 -20 -25
-20 -14 0 -25 -4 -25 -10 0 -5 16 -10 35 -10 32 0 35 2 35 30 0 20 5 30 15 30
9 0 15 -9 15 -24 0 -14 5 -28 10 -31 6 -4 10 9 10 33 0 33 -3 38 -22 38 -14
-1 -24 6 -26 17 -3 13 3 17 22 17 14 0 26 5 26 10 0 6 -16 10 -35 10 -32 0
-35 -2 -35 -31 0 -38 -24 -35 -28 4 -5 39 -22 33 -22 -8z"/>
<path d="M375 858 c-16 -6 -31 -12 -33 -13 -1 -1 3 -16 9 -33 7 -21 18 -32 30
-32 10 0 19 5 19 11 0 5 5 7 10 4 20 -12 39 14 31 43 -8 31 -23 35 -66 20z
m55 -28 c0 -11 -4 -20 -10 -20 -5 0 -10 2 -10 4 0 2 -3 11 -6 20 -4 11 -1 16
10 16 9 0 16 -8 16 -20z m-40 -16 c0 -22 -2 -25 -15 -14 -8 7 -15 19 -15 26 0
8 7 14 15 14 10 0 15 -10 15 -26z"/>
<path d="M1555 850 c3 -5 15 -10 26 -10 30 0 22 -17 -11 -23 -42 -9 -37 -24
11 -37 37 -10 71 -7 38 4 -8 2 -21 7 -29 9 -10 3 -4 9 18 17 40 15 41 25 1 39
-40 14 -62 14 -54 1z"/>
<path d="M408 773 c-42 -17 -52 -39 -14 -29 31 8 44 -21 19 -40 -25 -19 0 -18
37 1 33 17 40 36 11 28 -23 -6 -38 25 -16 33 15 6 21 25 8 23 -5 -1 -25 -8
-45 -16z"/>
<path d="M1510 747 c0 -17 64 -79 73 -71 4 4 2 13 -3 19 -13 16 -2 45 16 45 8
0 14 5 14 10 0 6 -22 10 -50 10 -34 0 -50 -4 -50 -13z m60 -11 c0 -11 -19 -15
-25 -6 -3 5 1 10 9 10 9 0 16 -2 16 -4z"/>
<path d="M1490 713 c0 -4 10 -17 22 -30 27 -29 21 -35 -20 -24 -19 6 -32 6
-32 1 0 -5 19 -14 41 -20 58 -16 69 -1 33 44 -27 34 -44 45 -44 29z"/>
<path d="M438 683 c-34 -5 -36 -15 -5 -28 15 -7 21 -18 20 -33 -4 -32 8 -27
39 17 36 51 29 56 -54 44z m47 -23 c-3 -5 -10 -10 -16 -10 -5 0 -9 5 -9 10 0
6 7 10 16 10 8 0 12 -4 9 -10z"/>
<path d="M847 673 c-23 -22 7 -74 34 -57 15 9 10 51 -7 58 -19 7 -19 7 -27 -1z
m29 -39 c-5 -13 -10 -14 -18 -6 -6 6 -8 18 -4 28 5 13 10 14 18 6 6 -6 8 -18
4 -28z"/>
<path d="M1041 647 c-1 -24 3 -36 9 -32 6 4 8 10 5 15 -3 5 3 11 12 13 16 4
16 5 1 6 -9 0 -19 9 -21 19 -3 9 -5 0 -6 -21z"/>
<path d="M1103 645 c0 -22 2 -30 4 -17 2 12 2 30 0 40 -3 9 -5 -1 -4 -23z"/>
<path d="M1173 673 c-19 -7 -16 -50 4 -57 9 -4 23 0 32 9 9 9 11 15 4 15 -6 0
-13 -6 -16 -12 -3 -10 -7 -10 -17 -1 -17 16 -4 47 16 39 8 -3 12 -2 9 4 -7 11
-13 11 -32 3z"/>
<path d="M1231 650 c0 -19 3 -30 7 -24 4 6 14 14 22 17 12 4 12 6 -2 6 -9 1
-19 9 -21 19 -3 9 -5 1 -6 -18z"/>
<path d="M710 640 c1 -29 2 -32 11 -17 7 12 14 15 22 8 9 -7 12 -2 12 15 0 25
-9 31 -21 13 -4 -8 -9 -7 -15 2 -6 9 -9 2 -9 -21z"/>
<path d="M771 643 c0 -25 1 -26 9 -8 7 18 8 19 15 3 9 -22 25 -23 25 -2 0 8
-4 13 -9 10 -5 -3 -11 1 -15 9 -9 25 -26 17 -25 -12z"/>
<path d="M930 666 c0 -13 28 -55 33 -49 11 10 8 35 -3 28 -5 -3 -10 1 -10 9 0
9 -4 16 -10 16 -5 0 -10 -2 -10 -4z"/>
<path d="M992 640 c0 -19 2 -27 5 -17 2 9 2 25 0 35 -3 9 -5 1 -5 -18z"/>
<path d="M1135 645 c0 -13 3 -21 8 -18 4 2 7 10 7 18 0 8 -3 16 -7 18 -5 3 -8
-5 -8 -18z"/>
<path d="M910 635 c0 -8 5 -15 10 -15 6 0 10 7 10 15 0 8 -4 15 -10 15 -5 0
-10 -7 -10 -15z"/>
<path d="M500 612 c-21 -18 -29 -31 -22 -35 6 -4 13 -3 17 3 14 22 26 9 20
-20 -4 -19 -3 -30 4 -30 6 0 11 9 11 20 0 11 5 17 13 15 6 -3 19 0 27 5 13 8
13 12 0 36 -21 38 -30 38 -70 6z m57 -7 c3 -9 3 -19 -1 -22 -8 -9 -37 18 -30
28 8 14 24 11 31 -6z"/>
<path d="M1435 629 c-7 -10 36 -89 48 -89 5 0 6 8 2 19 -6 20 18 47 34 37 5
-4 12 -3 15 2 3 5 -17 16 -44 24 -28 9 -52 12 -55 7z m45 -29 c0 -5 -4 -10
-10 -10 -5 0 -10 5 -10 10 0 6 5 10 10 10 6 0 10 -4 10 -10z"/>
<path d="M1405 569 c8 -26 -13 -43 -32 -27 -26 21 -21 3 8 -31 16 -19 32 -32
35 -28 4 4 1 14 -6 23 -12 13 -11 17 1 25 19 12 29 11 29 -1 0 -5 7 -10 16
-10 12 0 9 8 -13 34 -32 40 -47 45 -38 15z"/>
<path d="M799 578 c-8 -17 -5 -59 3 -64 7 -5 9 -1 5 9 -3 10 -2 17 2 17 5 0
11 -6 14 -12 2 -7 8 -9 13 -5 5 5 1 14 -9 21 -19 15 -24 31 -5 20 7 -4 8 -3 4
4 -6 11 -24 16 -27 10z"/>
<path d="M940 550 c0 -26 2 -29 14 -18 8 7 10 15 5 16 -15 6 -10 20 9 25 13 4
11 5 -5 6 -19 1 -23 -4 -23 -29z"/>
<path d="M1000 566 c-8 -11 -9 -20 -1 -33 9 -13 11 -14 10 -3 -3 32 1 42 17
36 8 -3 12 -2 9 4 -9 14 -21 12 -35 -4z"/>
<path d="M1069 547 c4 -24 6 -27 9 -12 2 11 8 25 13 30 5 7 1 11 -10 12 -14 1
-16 -4 -12 -30z"/>
<path d="M1112 551 c-6 -18 -7 -29 -2 -26 6 4 10 13 10 21 0 8 5 12 10 9 6 -4
8 -10 5 -15 -3 -5 -1 -11 5 -15 15 -9 12 18 -3 40 -13 17 -15 16 -25 -14z"/>
<path d="M1171 548 c0 -18 3 -27 6 -20 3 9 9 10 18 2 9 -8 14 -5 18 10 3 11 1
23 -4 26 -5 3 -9 0 -9 -5 0 -6 -5 -11 -11 -11 -6 0 -9 7 -5 15 3 8 1 15 -4 15
-6 0 -10 -15 -9 -32z"/>
<path d="M772 545 c0 -16 2 -22 5 -12 2 9 2 23 0 30 -3 6 -5 -1 -5 -18z"/>
<path d="M870 551 c0 -11 4 -23 10 -26 6 -4 7 1 3 12 -6 17 -5 17 15 -1 22
-19 22 -19 22 10 0 20 -3 25 -9 15 -6 -9 -11 -10 -15 -2 -11 18 -26 13 -26 -8z"/>
<path d="M565 538 c-39 -21 -39 -22 -15 -28 14 -3 30 -16 36 -28 11 -22 12
-22 28 18 27 68 19 74 -49 38z m39 -13 c-7 -16 -24 -21 -24 -6 0 8 7 13 27 20
1 1 0 -6 -3 -14z"/>
<path d="M649 521 c11 -7 10 -15 -7 -43 -29 -46 -15 -58 15 -13 15 22 29 32
38 29 12 -5 11 -12 -5 -45 -11 -21 -16 -39 -10 -39 5 0 18 17 29 38 l19 38
-34 22 c-18 12 -39 22 -46 22 -10 0 -9 -3 1 -9z"/>
<path d="M1301 513 l-22 -18 26 -38 c27 -39 44 -40 75 -2 11 13 10 19 -8 36
-12 11 -22 24 -22 29 0 16 -26 12 -49 -7z m39 -12 c0 -14 -18 -23 -31 -15 -8
4 -7 9 2 15 18 11 29 11 29 0z m30 -31 c0 -5 -9 -14 -20 -20 -15 -8 -20 -8
-20 3 0 8 3 17 7 20 10 10 33 8 33 -3z"/>
<path d="M743 448 c3 -21 1 -40 -6 -47 -6 -6 -8 -13 -5 -16 3 -3 22 11 42 30
21 19 31 35 24 35 -8 0 -19 -5 -26 -12 -9 -9 -12 -7 -12 9 0 12 -5 25 -12 29
-8 5 -9 -3 -5 -28z"/>
<path d="M1207 463 c-11 -10 -8 -103 3 -103 6 0 10 6 10 14 0 18 22 26 52 19
20 -5 18 0 -17 36 -44 46 -40 43 -48 34z m33 -44 c0 -5 -4 -9 -10 -9 -5 0 -10
7 -10 16 0 8 5 12 10 9 6 -3 10 -10 10 -16z"/>
<path d="M1163 430 c-6 -22 -18 -26 -28 -10 -3 6 -11 10 -16 10 -6 0 1 -14 15
-31 14 -17 26 -35 26 -40 0 -5 3 -9 8 -9 4 0 8 23 9 50 1 52 -5 65 -14 30z"/>
<path d="M797 403 c-25 -35 -29 -59 -6 -36 14 14 49 5 49 -13 0 -8 5 -14 11
-14 7 0 9 9 5 23 -3 12 -6 34 -6 50 0 38 -22 34 -53 -10z m43 -1 c0 -13 -12
-22 -22 -16 -10 6 -1 24 13 24 5 0 9 -4 9 -8z"/>
<path d="M915 391 c10 -76 24 -81 57 -18 l23 42 3 -42 c3 -44 22 -61 22 -20
-1 70 -35 90 -62 35 -14 -30 -17 -31 -23 -13 -18 53 -25 59 -20 16z"/>
<path d="M1030 398 c0 -42 12 -68 30 -68 33 0 50 12 50 35 0 43 -10 55 -46 55
-29 0 -34 -4 -34 -22z m55 -23 c0 -43 -29 -40 -33 3 -3 28 0 33 15 30 13 -2
18 -12 18 -33z"/>
</g>
</svg>
